<svg width="64" height="64" viewBox="0 0 64 64" fill="none" xmlns="http://www.w3.org/2000/svg">
<path d="M60.96 18.28H57.9V12.18H54.86V9.14H51.8V6.1H45.72V3.04H39.62V0H24.38V3.04H18.28V6.1H12.18V9.14H9.14V12.18H6.1V18.28H3.04V24.38H0V39.62H3.04V45.72H6.1V51.8H9.14V54.86H12.18V57.9H18.28V60.96H24.38V64H39.62V60.96H45.72V57.9H51.8V54.86H54.86V51.8H57.9V45.72H60.96V39.62H64V24.38H60.96V18.28ZM51.8 42.66H48.76V45.72H45.72V48.76H36.58V45.72H39.62V42.66H42.66V39.62H39.62V36.58H27.42V42.66H24.38V39.62H21.34V36.58H18.28V33.52H15.24V30.48H12.18V27.42H15.24V24.38H18.28V21.34H21.34V18.28H24.38V15.24H27.42V21.34H45.72V24.38H48.76V27.42H51.8V42.66Z" fill="#214D59"/>
</svg>
