<svg width="64" height="64" viewBox="0 0 64 64" fill="none" xmlns="http://www.w3.org/2000/svg">
<path d="M60.96 18.28H57.9V12.18H54.86V9.14H51.82V6.1H45.72V3.04H39.62V0H24.38V3.04H18.28V6.1H12.2V9.14H9.14V12.18H6.1V18.28H3.04V24.38H0V39.62H3.04V45.72H6.1V51.8H9.14V54.86H12.2V57.9H18.28V60.96H24.38V64H39.62V60.96H45.72V57.9H51.82V54.86H54.86V51.8H57.9V45.72H60.96V39.62H64V24.38H60.96V18.28ZM51.82 30.48H48.76V33.52H45.72V36.58H42.66V39.62H39.62V42.66H36.58V36.58H24.38V39.62H21.34V42.66H24.38V45.72H27.42V48.76H18.28V45.72H15.24V42.66H12.2V27.42H15.24V24.38H18.28V21.34H36.58V15.24H39.62V18.28H42.66V21.34H45.72V24.38H48.76V27.42H51.82V30.48Z" fill="#214D59"/>
</svg>
