<svg width="46" height="44" viewBox="0 0 46 44" fill="none" xmlns="http://www.w3.org/2000/svg">
<path d="M41.1452 38.865H43.4402V36.585H45.7202V6.87H43.4402V9.15H41.1452V11.43H34.2902V13.725H11.4302V16.005H32.0102V27.435H34.2902V25.155H41.1452V22.86H43.4402V25.155H41.1452V27.435H34.2902V29.715H32.0102V41.145H11.4302V43.44H34.2902V41.145H41.1452V38.865Z" fill="#364153"/>
<path d="M43.4402 4.57501H38.8652V6.87001H43.4402V4.57501Z" fill="#364153"/>
<path d="M38.8648 2.29501H32.0098V4.57501H38.8648V2.29501Z" fill="#364153"/>
<path d="M32.0102 27.435H11.4302V29.715H32.0102V27.435Z" fill="#364153"/>
<path d="M20.5801 34.29H13.7251V36.585H20.5801V34.29Z" fill="#364153"/>
<path d="M20.5801 20.58H13.7251V22.86H20.5801V20.58Z" fill="#364153"/>
<path d="M32.0101 0H13.7251V2.295H32.0101V0Z" fill="#364153"/>
<path d="M11.4302 38.865H4.5752V41.145H11.4302V38.865Z" fill="#364153"/>
<path d="M11.4302 25.155H4.5752V27.435H11.4302V25.155Z" fill="#364153"/>
<path d="M11.4302 11.43H4.5752V13.725H11.4302V11.43Z" fill="#364153"/>
<path d="M13.725 2.29501H6.85498V4.57501H13.725V2.29501Z" fill="#364153"/>
<path d="M9.1502 29.715H4.5752V34.29H9.1502V29.715Z" fill="#364153"/>
<path d="M9.1502 16.005H4.5752V20.58H9.1502V16.005Z" fill="#364153"/>
<path d="M6.85492 4.57501H2.29492V6.87001H6.85492V4.57501Z" fill="#364153"/>
<path d="M4.57492 36.585H2.29492V38.865H4.57492V36.585Z" fill="#364153"/>
<path d="M2.295 25.155H4.575V22.86H2.295V11.43H4.575V9.15H2.295V6.87H0V36.585H2.295V25.155Z" fill="#364153"/>
</svg>
