<svg width="125" height="64" viewBox="0 0 125 64" fill="none" xmlns="http://www.w3.org/2000/svg">
<path d="M114.751 59.3291V57.2128H112.275V55.0964H109.776V52.98V50.8636H107.277V48.7472V46.6309V44.491V42.3746V40.2582V38.1418V36.0255H104.778V38.1418H102.278V40.2582H99.8028H97.3036H94.8044H92.3052H89.806H87.3068V38.1418H84.8312V36.0255H82.332V33.9091H79.8328V36.0255H77.3336V38.1418V40.2582H74.8344V42.3746H72.3588V44.491H69.8596V46.6309H67.3604H64.8612V48.7472H62.362H59.8628H57.3872H54.888H52.3888H49.8896H47.3904H44.9148V46.6309H42.4156H39.9164V44.491H37.4172V42.3746H34.918V40.2582H32.4424H29.9432V42.3746H27.444V44.491H24.9448H22.4456H19.97H17.4708H14.9716H12.4724V42.3746H9.97321V40.2582H7.47401V38.1418V36.0255H4.99839V33.9091V31.7927V29.6763V27.5364H2.4992V29.6763V31.7927V33.9091H0V36.0255V38.1418V40.2582V42.3746V44.491V46.6309H2.4992V48.7472V50.8636V52.98H4.99839V55.0964V57.2128H7.47401V59.3291H9.97321V61.4455H12.4724H14.9716V63.5619H17.4708H19.97H22.4456H24.9448H27.444H29.9432H32.4424H34.918H37.4172H39.9164H42.4156H44.9148H47.3904H49.8896H52.3888H54.888H57.3872H59.8628H62.362H64.8612H67.3604H69.8596H72.3588H74.8344H77.3336H79.8328H82.332H84.8312H87.3068H89.806H92.3052H94.8044H97.3036H99.8028H102.278H104.778H107.277H109.776H112.275H114.751V61.4455H117.25V59.3291H114.751Z" fill="#C1E5F5"/>
<path d="M122.248 40.2582V38.1418V36.0255H119.749V33.9091H117.25V31.7927H114.75V29.6763H112.275H109.776H107.276V27.5364V25.42V23.3037H104.777V21.1873V19.0709V16.9545H102.278V14.8382H99.8025V12.7218H97.3033V10.6054H94.8041V8.46551H92.3049H89.8057H87.3065H84.8309H82.3317H79.8325H77.3333H74.8341V10.6054H72.3585V8.46551V6.34913H69.8593V4.23276H67.3601H64.8609V2.11638H62.3617V0H59.8625H57.3869H54.8877H52.3885H49.8893H47.3901V2.11638H44.9145H42.4153V4.23276H39.9161V6.34913H37.4169V8.46551H34.9177V10.6054H32.4421V12.7218V14.8382V16.9545H29.9429H27.4437H24.9445H22.4453H19.9696H17.4704H14.9713V19.0709H12.4721H9.97286V21.1873H7.47367V23.3037H4.99805V25.42V27.5364V29.6763V31.7927V33.9091V36.0255H7.47367V38.1418V40.2582H9.97286V42.3746H12.4721V44.491H14.9713H17.4704H19.9696H22.4453H24.9445H27.4437V42.3746H29.9429V40.2582H32.4421H34.9177V42.3746H37.4169V44.491H39.9161V46.6309H42.4153H44.9145V48.7472H47.3901H49.8893H52.3885H54.8877H57.3869H59.8625H62.3617H64.8609V46.6309H67.3601H69.8593V44.491H72.3585V42.3746H74.8341V40.2582H77.3333V38.1418V36.0255H79.8325V33.9091H82.3317V36.0255H84.8309V38.1418H87.3065V40.2582H89.8057H92.3049H94.8041H97.3033H99.8025H102.278V38.1418H104.777V36.0255H107.276V38.1418V40.2582V42.3746V44.491V46.6309V48.7472V50.8636H109.776V52.98V55.0964H112.275V57.2127H114.75V59.3291H117.25V61.4455H119.749V59.3291V57.2127H122.248V55.0964H124.747V52.98V50.8636V48.7472V46.6309V44.491V42.3746V40.2582H122.248Z" fill="white"/>
</svg>
