<svg width="252" height="128" viewBox="0 0 252 128" fill="none" xmlns="http://www.w3.org/2000/svg">
<path d="M231.084 119.476V115.214H226.098V110.952H221.065V106.69V102.428H216.033V98.1665V93.9045V89.5953V85.3333V81.0714V76.8095V72.5475H211V76.8095H205.967V81.0714H200.981H195.949H190.916H185.883H180.85H175.817V76.8095H170.832V72.5475H165.799V68.2856H160.766V72.5475H155.733V76.8095V81.0714H150.7V85.3333H145.715V89.5953H140.682V93.9045H135.649H130.617V98.1665H125.584H120.551H115.566H110.533H105.5H100.467H95.4342H90.4488V93.9045H85.4159H80.3831V89.5953H75.3502V85.3333H70.3174V81.0714H65.332H60.2992V85.3333H55.2663V89.5953H50.2335H45.2007H40.2153H35.1824H30.1496H25.1168V85.3333H20.0839V81.0714H15.0511V76.8095V72.5475H10.0657V68.2856V64.0237V59.7617V55.4525H5.03285V59.7617V64.0237V68.2856H0V72.5475V76.8095V81.0714V85.3333V89.5953V93.9045H5.03285V98.1665V102.428V106.69H10.0657V110.952V115.214H15.0511V119.476H20.0839V123.738H25.1168H30.1496V128H35.1824H40.2153H45.2007H50.2335H55.2663H60.2992H65.332H70.3174H75.3502H80.3831H85.4159H90.4488H95.4342H100.467H105.5H110.533H115.566H120.551H125.584H130.617H135.649H140.682H145.715H150.7H155.733H160.766H165.799H170.832H175.817H180.85H185.883H190.916H195.949H200.981H205.967H211H216.033H221.065H226.098H231.084V123.738H236.116V119.476H231.084Z" fill="#C1E5F5"/>
<path d="M246.182 81.0714V76.8095V72.5475H241.149V68.2856H236.116V64.0237H231.083V59.7617H226.098H221.065H216.032V55.4525V51.1905V46.9286H210.999V42.6667V38.4047V34.1428H205.967V29.8809H200.981V25.6189H195.948V21.357H190.916V17.0477H185.883H180.85H175.817H170.832H165.799H160.766H155.733H150.7V21.357H145.715V17.0477V12.7858H140.682V8.52386H135.649H130.616V4.26193H125.583V0H120.551H115.565H110.532H105.5H100.467H95.4339V4.26193H90.4485H85.4157V8.52386H80.3828V12.7858H75.35V17.0477H70.3171V21.357H65.3318V25.6189V29.8809V34.1428H60.2989H55.2661H50.2332H45.2004H40.215H35.1822H30.1493V38.4047H25.1165H20.0836V42.6667H15.0508V46.9286H10.0654V51.1905V55.4525V59.7617V64.0237V68.2856V72.5475H15.0508V76.8095V81.0714H20.0836V85.3333H25.1165V89.5953H30.1493H35.1822H40.215H45.2004H50.2332H55.2661V85.3333H60.2989V81.0714H65.3318H70.3171V85.3333H75.35V89.5953H80.3828V93.9045H85.4157H90.4485V98.1665H95.4339H100.467H105.5H110.532H115.565H120.551H125.583H130.616V93.9045H135.649H140.682V89.5953H145.715V85.3333H150.7V81.0714H155.733V76.8095V72.5475H160.766V68.2856H165.799V72.5475H170.832V76.8095H175.817V81.0714H180.85H185.883H190.916H195.948H200.981H205.967V76.8095H210.999V72.5475H216.032V76.8095V81.0714V85.3333V89.5953V93.9045V98.1665V102.428H221.065V106.69V110.952H226.098V115.214H231.083V119.476H236.116V123.738H241.149V119.476V115.214H246.182V110.952H251.215V106.69V102.428V98.1665V93.9045V89.5953V85.3333V81.0714H246.182Z" fill="white"/>
</svg>
