<svg width="53" height="53" viewBox="0 0 53 53" fill="none" xmlns="http://www.w3.org/2000/svg">
<rect width="52.2569" height="52.2569" rx="26.1284" fill="#CDF4FE"/>
<g clip-path="url(#clip0_366_1615)">
<path d="M27.9898 15.5547V14.3054H26.7487V15.5547H25.5076V14.3054H24.2584V15.5547H13.064V16.7958H14.3051V18.045H15.5543V30.4805H16.7954V18.045H35.4609V30.4805H36.702V18.045H37.9431V16.7958H39.1924V15.5547H27.9898Z" fill="#214D59"/>
<path d="M35.4617 30.4803H34.2124V31.7296H35.4617V30.4803Z" fill="#214D59"/>
<path d="M18.0366 31.7296V32.9707H25.5077V36.7022H26.7488V32.9707H34.2118V31.7296H18.0366Z" fill="#214D59"/>
<path d="M20.5272 27.9982V26.7489H21.7683V25.5078H20.5272V19.2859H19.2861V29.2393H32.9709V27.9982H20.5272Z" fill="#214D59"/>
<path d="M31.7295 20.5272H30.4802V21.7765H31.7295V20.5272Z" fill="#214D59"/>
<path d="M30.4808 21.7766H29.2397V23.0177H30.4808V21.7766Z" fill="#214D59"/>
<path d="M29.2395 23.0175H27.9902V24.2668H29.2395V23.0175Z" fill="#214D59"/>
<path d="M27.9896 36.7023H26.7485V37.9516H27.9896V36.7023Z" fill="#214D59"/>
<path d="M27.9896 24.2667H26.7485V25.5078H27.9896V24.2667Z" fill="#214D59"/>
<path d="M26.7494 37.9515H25.5083V39.1926H26.7494V37.9515Z" fill="#214D59"/>
<path d="M26.7494 25.5078H25.5083V26.7489H26.7494V25.5078Z" fill="#214D59"/>
<path d="M26.7494 13.0643H25.5083V14.3054H26.7494V13.0643Z" fill="#214D59"/>
<path d="M25.5078 36.7023H24.2585V37.9516H25.5078V36.7023Z" fill="#214D59"/>
<path d="M25.5078 24.2667H24.2585V25.5078H25.5078V24.2667Z" fill="#214D59"/>
<path d="M24.2582 23.0175H23.0171V24.2668H24.2582V23.0175Z" fill="#214D59"/>
<path d="M23.0173 24.2667H21.7681V25.5078H23.0173V24.2667Z" fill="#214D59"/>
<path d="M18.0372 30.4803H16.7961V31.7296H18.0372V30.4803Z" fill="#214D59"/>
</g>
<defs>
<clipPath id="clip0_366_1615">
<rect width="26.1284" height="26.1284" fill="white" transform="translate(13.064 13.0643)"/>
</clipPath>
</defs>
</svg>
