<svg width="48" height="48" viewBox="0 0 48 48" fill="none" xmlns="http://www.w3.org/2000/svg">
<path d="M38.8653 6.85501V9.15001H41.1453V32.01H43.4253V6.85501H41.1453V4.57501H36.5703V6.85501H38.8653Z" fill="#364153"/>
<path d="M41.1452 32.01H38.8652V36.57H41.1452V32.01Z" fill="#364153"/>
<path d="M38.8653 36.57H36.5703V38.865H38.8653V36.57Z" fill="#364153"/>
<path d="M38.8653 9.14999H36.5703V32.01H38.8653V9.14999Z" fill="#364153"/>
<path d="M36.57 38.865H34.29V41.145H36.57V38.865Z" fill="#364153"/>
<path d="M36.57 32.01H34.29V36.57H36.57V32.01Z" fill="#364153"/>
<path d="M34.2903 41.145H32.0103V43.44H34.2903V41.145Z" fill="#364153"/>
<path d="M34.2903 36.57H32.0103V38.865H34.2903V36.57Z" fill="#364153"/>
<path d="M36.5703 6.85501H32.0103V9.15001H36.5703V6.85501Z" fill="#364153"/>
<path d="M36.5703 2.29501H32.0103V4.57501H36.5703V2.29501Z" fill="#364153"/>
<path d="M32.0101 43.44H27.4351V45.72H32.0101V43.44Z" fill="#364153"/>
<path d="M32.0101 38.865H27.4351V41.145H32.0101V38.865Z" fill="#364153"/>
<path d="M20.5804 20.58V16.005H18.2854V20.58H16.0054V32.01H18.2854V34.29H29.7154V32.01H32.0104V20.58H29.7154V16.005H27.4354V20.58H20.5804ZM25.1404 27.435H22.8604V22.86H25.1404V27.435Z" fill="#364153"/>
<path d="M27.4351 45.72H20.5801V48H27.4351V45.72Z" fill="#364153"/>
<path d="M27.4351 41.145H20.5801V43.44H27.4351V41.145Z" fill="#364153"/>
<path d="M27.4351 13.725H20.5801V16.005H27.4351V13.725Z" fill="#364153"/>
<path d="M20.5804 43.44H16.0054V45.72H20.5804V43.44Z" fill="#364153"/>
<path d="M20.5804 38.865H16.0054V41.145H20.5804V38.865Z" fill="#364153"/>
<path d="M32.0104 4.57501H16.0054V6.85501H32.0104V4.57501Z" fill="#364153"/>
<path d="M32.0104 0H16.0054V2.295H32.0104V0Z" fill="#364153"/>
<path d="M16.005 41.145H13.71V43.44H16.005V41.145Z" fill="#364153"/>
<path d="M16.005 36.57H13.71V38.865H16.005V36.57Z" fill="#364153"/>
<path d="M16.0052 6.85501H11.4302V9.15001H16.0052V6.85501Z" fill="#364153"/>
<path d="M16.0052 2.29501H11.4302V4.57501H16.0052V2.29501Z" fill="#364153"/>
<path d="M13.7102 38.865H11.4302V41.145H13.7102V38.865Z" fill="#364153"/>
<path d="M13.7102 32.01H11.4302V36.57H13.7102V32.01Z" fill="#364153"/>
<path d="M11.4304 36.57H9.15039V38.865H11.4304V36.57Z" fill="#364153"/>
<path d="M11.4304 9.14999H9.15039V32.01H11.4304V9.14999Z" fill="#364153"/>
<path d="M11.43 4.57501H6.85498V6.85501H11.43V4.57501Z" fill="#364153"/>
<path d="M9.14998 32.01H6.85498V36.57H9.14998V32.01Z" fill="#364153"/>
<path d="M6.8552 6.85501H4.5752V32.01H6.8552V6.85501Z" fill="#364153"/>
</svg>
