<svg width="37" height="32" viewBox="0 0 37 32" fill="none" xmlns="http://www.w3.org/2000/svg">
<rect x="4.479" width="2.56" height="2.56" fill="#B80609"/>
<rect x="7.03906" width="2.56" height="2.56" fill="#D62024"/>
<rect x="8.95947" width="2.56" height="2.56" fill="#E95052"/>
<rect x="11.5195" width="2.56" height="2.56" fill="#E66265"/>
<rect x="13.4399" width="2.56" height="2.56" fill="#D6383B"/>
<rect x="22.3994" width="2.56" height="2.56" fill="#DC2C2E"/>
<rect x="24.9595" width="2.56" height="2.56" fill="#DD3738"/>
<rect x="26.8804" width="2.56" height="2.56" fill="#E43B3D"/>
<rect x="29.4399" width="2.56" height="2.56" fill="#C10E13"/>
<rect x="2.55957" y="2.55994" width="2.56" height="2.56" fill="#B6080B"/>
<rect x="4.479" y="2.55994" width="2.56" height="2.56" fill="#E64E51"/>
<rect x="7.03906" y="2.55994" width="2.56" height="2.56" fill="#F6CACC"/>
<rect x="8.95947" y="2.55994" width="2.56" height="2.56" fill="#EDA0A1"/>
<rect x="11.5195" y="2.55994" width="2.56" height="2.56" fill="#EA696A"/>
<rect x="13.4399" y="2.55994" width="2.56" height="2.56" fill="#E35156"/>
<rect x="16" y="2.55994" width="2.56" height="2.56" fill="#DD3C3F"/>
<rect x="20.479" y="2.55994" width="2.56" height="2.56" fill="#E74748"/>
<rect x="22.3994" y="2.55994" width="2.56" height="2.56" fill="#DA292C"/>
<rect x="24.9595" y="2.55994" width="2.56" height="2.56" fill="#DD262A"/>
<rect x="26.8804" y="2.55994" width="2.56" height="2.56" fill="#DF393B"/>
<rect x="29.4399" y="2.55994" width="2.56" height="2.56" fill="#E9696C"/>
<rect x="31.3594" y="2.55994" width="2.56" height="2.56" fill="#EB1516"/>
<rect x="2.55957" y="4.47998" width="2.56" height="2.56" fill="#D82B2F"/>
<rect x="4.479" y="4.47998" width="2.56" height="2.56" fill="#F5C9CB"/>
<rect x="7.03906" y="4.47998" width="2.56" height="2.56" fill="#E6787B"/>
<rect x="8.95947" y="4.47998" width="2.56" height="2.56" fill="#DC1317"/>
<rect x="11.5195" y="4.47998" width="2.56" height="2.56" fill="#D80E13"/>
<rect x="13.4399" y="4.47998" width="2.56" height="2.56" fill="#DE0D0F"/>
<rect x="16" y="4.47998" width="2.56" height="2.56" fill="#DC0D10"/>
<rect x="17.9189" y="4.47998" width="2.56" height="2.56" fill="#DB1618"/>
<rect x="20.479" y="4.47998" width="2.56" height="2.56" fill="#DC0F11"/>
<rect x="22.3994" y="4.47998" width="2.56" height="2.56" fill="#D20F16"/>
<rect x="24.9595" y="4.47998" width="2.56" height="2.56" fill="#D50E14"/>
<rect x="26.8804" y="4.47998" width="2.56" height="2.56" fill="#DC0C11"/>
<rect x="29.4399" y="4.47998" width="2.56" height="2.56" fill="#E21B1F"/>
<rect x="31.3594" y="4.47998" width="2.56" height="2.56" fill="#EA6469"/>
<rect x="33.9194" y="4.47998" width="2.56" height="2.56" fill="#B4050A"/>
<rect y="7.03998" width="2.56" height="2.56" fill="#900C11"/>
<rect x="2.55957" y="7.03998" width="2.56" height="2.56" fill="#E37A7C"/>
<rect x="4.479" y="7.03998" width="2.56" height="2.56" fill="#EF9F9F"/>
<rect x="7.03906" y="7.03998" width="2.56" height="2.56" fill="#D91A1D"/>
<rect x="8.95947" y="7.03998" width="2.56" height="2.56" fill="#D70F12"/>
<rect x="11.5195" y="7.03998" width="2.56" height="2.56" fill="#D31015"/>
<rect x="13.4399" y="7.03998" width="2.56" height="2.56" fill="#D50F13"/>
<rect x="16" y="7.03998" width="2.56" height="2.56" fill="#D61012"/>
<rect x="17.9189" y="7.03998" width="2.56" height="2.56" fill="#D51013"/>
<rect x="20.479" y="7.03998" width="2.56" height="2.56" fill="#D41013"/>
<rect x="22.3994" y="7.03998" width="2.56" height="2.56" fill="#CF1017"/>
<rect x="24.9595" y="7.03998" width="2.56" height="2.56" fill="#D30E15"/>
<rect x="26.8804" y="7.03998" width="2.56" height="2.56" fill="#E10C0D"/>
<rect x="29.4399" y="7.03998" width="2.56" height="2.56" fill="#DD0A11"/>
<rect x="31.3594" y="7.03998" width="2.56" height="2.56" fill="#EE393A"/>
<rect x="33.9194" y="7.03998" width="2.56" height="2.56" fill="#E40D0F"/>
<rect y="8.95996" width="2.56" height="2.56" fill="#AB0D10"/>
<rect x="2.55957" y="8.95996" width="2.56" height="2.56" fill="#E27072"/>
<rect x="4.479" y="8.95996" width="2.56" height="2.56" fill="#E67979"/>
<rect x="7.03906" y="8.95996" width="2.56" height="2.56" fill="#D51315"/>
<rect x="8.95947" y="8.95996" width="2.56" height="2.56" fill="#CB1218"/>
<rect x="11.5195" y="8.95996" width="2.56" height="2.56" fill="#D31114"/>
<rect x="13.4399" y="8.95996" width="2.56" height="2.56" fill="#D01115"/>
<rect x="16" y="8.95996" width="2.56" height="2.56" fill="#CF1216"/>
<rect x="17.9189" y="8.95996" width="2.56" height="2.56" fill="#CB1218"/>
<rect x="20.479" y="8.95996" width="2.56" height="2.56" fill="#CB1318"/>
<rect x="22.3994" y="8.95996" width="2.56" height="2.56" fill="#CE1017"/>
<rect x="24.9595" y="8.95996" width="2.56" height="2.56" fill="#DC0E10"/>
<rect x="26.8804" y="8.95996" width="2.56" height="2.56" fill="#DF0B0E"/>
<rect x="29.4399" y="8.95996" width="2.56" height="2.56" fill="#DE0A10"/>
<rect x="31.3594" y="8.95996" width="2.56" height="2.56" fill="#E6181E"/>
<rect x="33.9194" y="8.95996" width="2.56" height="2.56" fill="#D21418"/>
<rect x="2.55957" y="11.52" width="2.56" height="2.56" fill="#CA2121"/>
<rect x="4.479" y="11.52" width="2.56" height="2.56" fill="#DE6768"/>
<rect x="7.03906" y="11.52" width="2.56" height="2.56" fill="#C8161B"/>
<rect x="8.95947" y="11.52" width="2.56" height="2.56" fill="#CA1418"/>
<rect x="11.5195" y="11.52" width="2.56" height="2.56" fill="#C81419"/>
<rect x="13.4399" y="11.52" width="2.56" height="2.56" fill="#C6141A"/>
<rect x="16" y="11.52" width="2.56" height="2.56" fill="#C7151A"/>
<rect x="17.9189" y="11.52" width="2.56" height="2.56" fill="#C91418"/>
<rect x="20.479" y="11.52" width="2.56" height="2.56" fill="#CF1315"/>
<rect x="22.3994" y="11.52" width="2.56" height="2.56" fill="#CF1116"/>
<rect x="24.9595" y="11.52" width="2.56" height="2.56" fill="#D00E16"/>
<rect x="26.8804" y="11.52" width="2.56" height="2.56" fill="#DA0D12"/>
<rect x="29.4399" y="11.52" width="2.56" height="2.56" fill="#DD0A11"/>
<rect x="31.3594" y="11.52" width="2.56" height="2.56" fill="#E2131B"/>
<rect x="33.9194" y="11.52" width="2.56" height="2.56" fill="#D3090C"/>
<rect x="2.55957" y="13.4399" width="2.56" height="2.56" fill="#A62629"/>
<rect x="4.479" y="13.4399" width="2.56" height="2.56" fill="#D55758"/>
<rect x="7.03906" y="13.4399" width="2.56" height="2.56" fill="#C81C20"/>
<rect x="8.95947" y="13.4399" width="2.56" height="2.56" fill="#C4161B"/>
<rect x="11.5195" y="13.4399" width="2.56" height="2.56" fill="#C1161C"/>
<rect x="13.4399" y="13.4399" width="2.56" height="2.56" fill="#C61619"/>
<rect x="16" y="13.4399" width="2.56" height="2.56" fill="#C3171B"/>
<rect x="17.9189" y="13.4399" width="2.56" height="2.56" fill="#C4151A"/>
<rect x="20.479" y="13.4399" width="2.56" height="2.56" fill="#D01315"/>
<rect x="22.3994" y="13.4399" width="2.56" height="2.56" fill="#D41013"/>
<rect x="24.9595" y="13.4399" width="2.56" height="2.56" fill="#D40F15"/>
<rect x="26.8804" y="13.4399" width="2.56" height="2.56" fill="#DA0D12"/>
<rect x="29.4399" y="13.4399" width="2.56" height="2.56" fill="#DE0B11"/>
<rect x="31.3594" y="13.4399" width="2.56" height="2.56" fill="#EB0A0A"/>
<rect x="4.479" y="16" width="2.56" height="2.56" fill="#B8393A"/>
<rect x="7.03906" y="16" width="2.56" height="2.56" fill="#BE2B2C"/>
<rect x="8.95947" y="16" width="2.56" height="2.56" fill="#BA1517"/>
<rect x="11.5195" y="16" width="2.56" height="2.56" fill="#C2181B"/>
<rect x="13.4399" y="16" width="2.56" height="2.56" fill="#C0181C"/>
<rect x="16" y="16" width="2.56" height="2.56" fill="#C0181C"/>
<rect x="17.9189" y="16" width="2.56" height="2.56" fill="#CA1518"/>
<rect x="20.479" y="16" width="2.56" height="2.56" fill="#D11315"/>
<rect x="22.3994" y="16" width="2.56" height="2.56" fill="#D21014"/>
<rect x="24.9595" y="16" width="2.56" height="2.56" fill="#D80E12"/>
<rect x="26.8804" y="16" width="2.56" height="2.56" fill="#DF0C0F"/>
<rect x="29.4399" y="16" width="2.56" height="2.56" fill="#D80B0F"/>
<rect x="31.3594" y="16" width="2.56" height="2.56" fill="#A0070A"/>
<rect x="7.03906" y="17.92" width="2.56" height="2.56" fill="#AD2E30"/>
<rect x="8.95947" y="17.92" width="2.56" height="2.56" fill="#BA272C"/>
<rect x="11.5195" y="17.92" width="2.56" height="2.56" fill="#BE1A1C"/>
<rect x="13.4399" y="17.92" width="2.56" height="2.56" fill="#BC1A1D"/>
<rect x="16" y="17.92" width="2.56" height="2.56" fill="#C0181C"/>
<rect x="17.9189" y="17.92" width="2.56" height="2.56" fill="#C3161B"/>
<rect x="20.479" y="17.92" width="2.56" height="2.56" fill="#CC1317"/>
<rect x="22.3994" y="17.92" width="2.56" height="2.56" fill="#CF1216"/>
<rect x="24.9595" y="17.92" width="2.56" height="2.56" fill="#D60E12"/>
<rect x="26.8804" y="17.92" width="2.56" height="2.56" fill="#D30D11"/>
<rect x="29.4399" y="17.92" width="2.56" height="2.56" fill="#93080C"/>
<rect x="8.95947" y="20.48" width="2.56" height="2.56" fill="#A72224"/>
<rect x="11.5195" y="20.48" width="2.56" height="2.56" fill="#B72124"/>
<rect x="13.4399" y="20.48" width="2.56" height="2.56" fill="#BD1A1D"/>
<rect x="16" y="20.48" width="2.56" height="2.56" fill="#BD181E"/>
<rect x="17.9189" y="20.48" width="2.56" height="2.56" fill="#C61519"/>
<rect x="20.479" y="20.48" width="2.56" height="2.56" fill="#CA1418"/>
<rect x="22.3994" y="20.48" width="2.56" height="2.56" fill="#D41113"/>
<rect x="24.9595" y="20.48" width="2.56" height="2.56" fill="#CF0F13"/>
<rect x="26.8804" y="20.48" width="2.56" height="2.56" fill="#9B0A0D"/>
<rect x="11.5195" y="22.4" width="2.56" height="2.56" fill="#AD1F20"/>
<rect x="13.4399" y="22.4" width="2.56" height="2.56" fill="#BB1C1F"/>
<rect x="16" y="22.4" width="2.56" height="2.56" fill="#C3181A"/>
<rect x="17.9189" y="22.4" width="2.56" height="2.56" fill="#C1161C"/>
<rect x="20.479" y="22.4" width="2.56" height="2.56" fill="#CF1414"/>
<rect x="22.3994" y="22.4" width="2.56" height="2.56" fill="#D01114"/>
<rect x="24.9595" y="22.4" width="2.56" height="2.56" fill="#B20C0D"/>
<rect x="13.4399" y="24.96" width="2.56" height="2.56" fill="#B01C1E"/>
<rect x="16" y="24.96" width="2.56" height="2.56" fill="#BA181D"/>
<rect x="17.9189" y="24.96" width="2.56" height="2.56" fill="#C3171B"/>
<rect x="20.479" y="24.96" width="2.56" height="2.56" fill="#C91316"/>
<rect x="22.3994" y="24.96" width="2.56" height="2.56" fill="#A70E10"/>
<rect x="16" y="26.88" width="2.56" height="2.56" fill="#B81D1F"/>
<rect x="17.9189" y="26.88" width="2.56" height="2.56" fill="#C41A1D"/>
<rect x="20.479" y="26.88" width="2.56" height="2.56" fill="#9E1013"/>
<rect x="17.9189" y="29.44" width="2.56" height="2.56" fill="#8C1316"/>
</svg>
