<svg width="47" height="47" viewBox="0 0 47 47" fill="none" xmlns="http://www.w3.org/2000/svg">
<rect width="46.48" height="46.48" rx="8" fill="#F9C62C"/>
<rect x="1" y="1" width="44.48" height="44.48" rx="7" stroke="black" stroke-opacity="0.2" stroke-width="2"/>
<path d="M38.4802 11.05H36.9502V35.43H38.4802V11.05Z" fill="#1E1E1E"/>
<path d="M36.9502 35.43H35.4302V36.95H36.9502V35.43Z" fill="#1E1E1E"/>
<path d="M36.9502 9.52002H35.4302V11.05H36.9502V9.52002Z" fill="#1E1E1E"/>
<path d="M35.4298 36.95H11.0498V38.48H35.4298V36.95Z" fill="#1E1E1E"/>
<path d="M32.3798 27.81H14.0998V29.33H12.5698V32.38H14.0998V30.86H32.3798V32.38H33.9098V29.33H32.3798V27.81Z" fill="#1E1E1E"/>
<path d="M32.3798 20.19H14.0998V21.71H12.5698V24.76H14.0998V23.24H32.3798V24.76H33.9098V21.71H32.3798V20.19Z" fill="#1E1E1E"/>
<path d="M32.3798 12.57H14.0998V14.09H12.5698V17.14H14.0998V15.62H32.3798V17.14H33.9098V14.09H32.3798V12.57Z" fill="#1E1E1E"/>
<path d="M32.3801 32.38H14.1001V33.9H32.3801V32.38Z" fill="#1E1E1E"/>
<path d="M32.3801 24.76H14.1001V26.28H32.3801V24.76Z" fill="#1E1E1E"/>
<path d="M32.3801 17.14H14.1001V18.67H32.3801V17.14Z" fill="#1E1E1E"/>
<path d="M35.4298 8H11.0498V9.52H35.4298V8Z" fill="#1E1E1E"/>
<path d="M11.0498 35.43H9.52979V36.95H11.0498V35.43Z" fill="#1E1E1E"/>
<path d="M11.0498 9.52002H9.52979V11.05H11.0498V9.52002Z" fill="#1E1E1E"/>
<path d="M9.53 11.05H8V35.43H9.53V11.05Z" fill="#1E1E1E"/>
</svg>
