<svg width="320" height="320" viewBox="0 0 320 320" fill="none" xmlns="http://www.w3.org/2000/svg">
<g clip-path="url(#clip0_151_10108)">
<path d="M320.005 45.75H304.805V60.95H320.005V45.75Z" fill="#214D59"/>
<path d="M304.799 152.35H274.299V167.65H289.499V213.35H258.999V198.15H243.799V228.55H289.499V274.35H304.799V228.55H319.999V213.35H304.799V152.35Z" fill="#214D59"/>
<path d="M304.797 91.45H289.497V106.65H274.297V121.95H289.497V137.15H304.797V121.95H319.997V106.65H304.797V91.45Z" fill="#214D59"/>
<path d="M274.304 167.65H259.004V198.15H274.304V167.65Z" fill="#214D59"/>
<path d="M258.999 60.95H243.799V76.25H258.999V60.95Z" fill="#214D59"/>
<path d="M243.804 121.95H228.604V152.35H243.804V121.95Z" fill="#214D59"/>
<path d="M121.901 259.05V182.85H106.701V228.55H91.4012V243.85H76.2012V274.35H91.4012V289.55H228.601V274.35H243.801V243.85H228.601V228.55H213.301V182.85H198.101V259.05H121.901Z" fill="#214D59"/>
<path d="M228.601 152.35H213.301V167.65H228.601V152.35Z" fill="#214D59"/>
<path d="M228.601 106.65H213.301V121.95H228.601V106.65Z" fill="#214D59"/>
<path d="M213.296 30.45H198.096V45.75H213.296V30.45Z" fill="#214D59"/>
<path d="M198.1 167.65H182.9V182.85H198.1V167.65Z" fill="#214D59"/>
<path d="M198.1 106.65H182.9V121.95H198.1V106.65Z" fill="#214D59"/>
<path d="M182.898 198.15H167.598V213.35H182.898V198.15Z" fill="#214D59"/>
<path d="M182.9 228.55H137.1V243.85H182.9V228.55Z" fill="#214D59"/>
<path d="M182.9 152.35H137.1V167.65H182.9V152.35Z" fill="#214D59"/>
<path d="M152.4 198.15H137.1V213.35H152.4V198.15Z" fill="#214D59"/>
<path d="M137.104 76.25V91.45H121.904V106.65H137.104V121.95H152.404V106.65H167.604V91.45H152.404V76.25H137.104Z" fill="#214D59"/>
<path d="M137.104 167.65H121.904V182.85H137.104V167.65Z" fill="#214D59"/>
<path d="M121.896 121.95H91.3965V137.15H121.896V121.95Z" fill="#214D59"/>
<path d="M106.696 152.35H91.3965V167.65H106.696V152.35Z" fill="#214D59"/>
<path d="M106.696 30.45H91.3965V45.75H106.696V30.45Z" fill="#214D59"/>
<path d="M91.4012 137.15H76.2012V152.35H91.4012V137.15Z" fill="#214D59"/>
<path d="M30.5 152.35V167.65H45.7V213.35H15.2V198.15H0V228.55H45.7V259.05H61V228.55H76.2V213.35H61V152.35H30.5Z" fill="#214D59"/>
<path d="M76.1961 91.45H60.9961V106.65H76.1961V91.45Z" fill="#214D59"/>
<path d="M30.4953 167.65H15.1953V198.15H30.4953V167.65Z" fill="#214D59"/>
<path d="M15.2 45.75V60.95H0V76.25H15.2V91.45H30.5V76.25H45.7V60.95H30.5V45.75H15.2Z" fill="#214D59"/>
</g>
<defs>
<clipPath id="clip0_151_10108">
<rect width="320" height="320" fill="white"/>
</clipPath>
</defs>
</svg>
