<svg width="79" height="79" viewBox="0 0 79 79" fill="none" xmlns="http://www.w3.org/2000/svg">
<rect width="78.3853" height="78.3853" rx="39.1927" fill="#00E3B5"/>
<g clip-path="url(#clip0_366_1602)">
<path d="M56.9207 47.5945H51.3235V45.7206H53.1852V43.8589H25.1992V45.7206H27.0669V47.5945H21.4636V58.7889H56.9207V47.5945ZM28.9225 45.7206H49.4496V47.5945H28.9225V45.7206ZM55.0591 56.9273H23.3253V49.4561H55.0591V56.9273Z" fill="#214D59"/>
<path d="M55.0592 21.4579H53.1853V43.8589H55.0592V21.4579Z" fill="#214D59"/>
<path d="M47.5882 55.0531H49.4498V53.1915H51.3237V51.3176H41.991V53.1915H47.5882V55.0531Z" fill="#214D59"/>
<path d="M45.7269 27.0674H43.853V28.9291H45.7269V27.0674Z" fill="#214D59"/>
<path d="M34.5203 27.0674H32.6587V28.9291H34.5203V27.0674Z" fill="#214D59"/>
<path d="M45.7271 30.7905H43.8532V28.9289H34.5204V30.7905H32.6588V32.6644H30.7971V38.2616H32.6588V34.5261H34.5204V38.2616H36.3943V36.3877H41.9915V38.2616H43.8532V34.5261H45.7271V38.2616H47.5887V32.6644H45.7271V30.7905ZM38.256 32.6644H36.3943V30.7905H38.256V32.6644ZM41.9915 32.6644H40.1299V30.7905H41.9915V32.6644Z" fill="#214D59"/>
<path d="M27.0674 41.9975H51.3301V23.332H27.0674V41.9975ZM28.9229 25.1937H49.4501V40.1236H28.9229V25.1937Z" fill="#214D59"/>
<path d="M28.9227 51.3176H27.061V53.1915H28.9227V51.3176Z" fill="#214D59"/>
<path d="M53.186 19.5963H25.2V21.4579H53.186V19.5963Z" fill="#214D59"/>
<path d="M25.1996 21.4579H23.3257V43.8589H25.1996V21.4579Z" fill="#214D59"/>
</g>
<defs>
<clipPath id="clip0_366_1602">
<rect width="39.1927" height="39.1927" fill="white" transform="translate(19.5964 19.5964)"/>
</clipPath>
</defs>
</svg>
