<svg width="48" height="48" viewBox="0 0 48 48" fill="none" xmlns="http://www.w3.org/2000/svg">
<path d="M15.9974 11.43V2.29498H13.7174V11.43H11.4224V43.44H13.7174V13.725H34.2824V43.44H36.5774V11.43H34.2824V2.29498H32.0024V11.43H15.9974Z" fill="#364153"/>
<path d="M34.2824 43.44H32.0024V45.72H34.2824V43.44Z" fill="#364153"/>
<path d="M32.0025 22.86H29.7075V27.435H32.0025V22.86Z" fill="#364153"/>
<path d="M32.0026 45.72H15.9976V48H32.0026V45.72Z" fill="#364153"/>
<path d="M29.7072 27.435H27.4272V29.715H29.7072V27.435Z" fill="#364153"/>
<path d="M25.1473 16.005H22.8523V29.715H20.5723V36.57H27.4273V29.715H25.1473V16.005Z" fill="#364153"/>
<path d="M29.7075 4.57501H18.2925V6.85501H29.7075V4.57501Z" fill="#364153"/>
<path d="M20.5725 27.435H18.2925V29.715H20.5725V27.435Z" fill="#364153"/>
<path d="M32.0026 0H15.9976V2.295H32.0026V0Z" fill="#364153"/>
<path d="M18.2926 20.58H15.9976V27.435H18.2926V20.58Z" fill="#364153"/>
<path d="M15.9973 43.44H13.7173V45.72H15.9973V43.44Z" fill="#364153"/>
</svg>
