<svg width="79" height="79" viewBox="0 0 79 79" fill="none" xmlns="http://www.w3.org/2000/svg">
<rect width="78.3853" height="78.3853" rx="39.1927" fill="#5FDBFD"/>
<g clip-path="url(#clip0_366_1635)">
<path d="M55.0592 41.985H53.1853V51.3178H55.0592V41.985Z" fill="#214D59"/>
<path d="M53.1861 51.3178H51.3245V55.0534H53.1861V51.3178Z" fill="#214D59"/>
<path d="M53.1861 38.2496H51.3245V41.9852H53.1861V38.2496Z" fill="#214D59"/>
<path d="M51.3228 55.0532H49.4612V56.9149H51.3228V55.0532Z" fill="#214D59"/>
<path d="M51.3228 36.3879H49.4612V38.2495H51.3228V36.3879Z" fill="#214D59"/>
<path d="M49.4623 41.985H47.5884V43.8589H49.4623V41.985Z" fill="#214D59"/>
<path d="M49.4623 34.5263H47.5884V36.3879H49.4623V34.5263Z" fill="#214D59"/>
<path d="M49.462 56.9151H28.9226V58.789H49.462V56.9151Z" fill="#214D59"/>
<path d="M47.5883 32.6521H43.8528V34.526H47.5883V32.6521Z" fill="#214D59"/>
<path d="M43.8524 38.2496H41.9907V40.1235H43.8524V38.2496Z" fill="#214D59"/>
<path d="M40.129 43.8592H38.2551V45.7208H40.129V43.8592Z" fill="#214D59"/>
<path d="M36.3939 38.2496H34.5322V40.1235H36.3939V38.2496Z" fill="#214D59"/>
<path d="M36.393 21.458H41.9902V32.6524H43.8519V21.458H45.7258V19.5963H32.6575V21.458H34.5314V32.6524H36.393V21.458Z" fill="#214D59"/>
<path d="M34.5322 32.6521H30.7966V34.526H34.5322V32.6521Z" fill="#214D59"/>
<path d="M32.6583 41.985H30.7966V43.8589H32.6583V41.985Z" fill="#214D59"/>
<path d="M28.9227 53.1793H30.7966V55.0532H47.5882V53.1793H49.4621V51.3177H51.3237V47.5821H49.4621V45.7205H45.7265V47.5821H43.8526V49.456H38.2554V47.5821H34.5321V45.7205H28.9227V47.5821H27.061V51.3177H28.9227V53.1793Z" fill="#214D59"/>
<path d="M30.7965 34.5263H28.9226V36.3879H30.7965V34.5263Z" fill="#214D59"/>
<path d="M28.9227 55.0532H27.061V56.9149H28.9227V55.0532Z" fill="#214D59"/>
<path d="M28.9227 36.3879H27.061V38.2495H28.9227V36.3879Z" fill="#214D59"/>
<path d="M27.0606 51.3178H25.199V55.0534H27.0606V51.3178Z" fill="#214D59"/>
<path d="M27.0606 38.2496H25.199V41.9852H27.0606V38.2496Z" fill="#214D59"/>
<path d="M25.1988 41.985H23.325V51.3178H25.1988V41.985Z" fill="#214D59"/>
</g>
<defs>
<clipPath id="clip0_366_1635">
<rect width="39.1927" height="39.1927" fill="white" transform="translate(19.5964 19.5963)"/>
</clipPath>
</defs>
</svg>
