<svg width="208" height="305" viewBox="0 0 208 305" fill="none" xmlns="http://www.w3.org/2000/svg">
<path d="M103.977 0H97.0457V6.93182H103.977V0Z" fill="#242424"/>
<path d="M110.909 0H103.977V6.93182H110.909V0Z" fill="#242424"/>
<path d="M97.0453 6.93181H90.1135V13.8636H97.0453V6.93181Z" fill="#242424"/>
<path d="M103.977 6.93181H97.0457V13.8636H103.977V6.93181Z" fill="#F69988"/>
<path d="M110.909 6.93181H103.977V13.8636H110.909V6.93181Z" fill="#B0120A"/>
<path d="M117.841 6.93181H110.909V13.8636H117.841V6.93181Z" fill="#242424"/>
<path d="M90.1137 13.8636H83.1819V20.7955H90.1137V13.8636Z" fill="#242424"/>
<path d="M97.0453 13.8636H90.1135V20.7955H97.0453V13.8636Z" fill="#F69988"/>
<path d="M103.977 13.8636H97.0457V20.7955H103.977V13.8636Z" fill="#D01716"/>
<path d="M110.909 13.8636H103.977V20.7955H110.909V13.8636Z" fill="#B0120A"/>
<path d="M117.841 13.8636H110.909V20.7955H117.841V13.8636Z" fill="#B0120A"/>
<path d="M124.773 13.8636H117.841V20.7955H124.773V13.8636Z" fill="#242424"/>
<path d="M83.1816 20.7955H76.2498V27.7273H83.1816V20.7955Z" fill="#242424"/>
<path d="M90.1137 20.7955H83.1819V27.7273H90.1137V20.7955Z" fill="#F69988"/>
<path d="M97.0453 20.7955H90.1135V27.7273H97.0453V20.7955Z" fill="#F69988"/>
<path d="M103.977 20.7955H97.0457V27.7273H103.977V20.7955Z" fill="#D01716"/>
<path d="M110.909 20.7955H103.977V27.7273H110.909V20.7955Z" fill="#B0120A"/>
<path d="M117.841 20.7955H110.909V27.7273H117.841V20.7955Z" fill="#B0120A"/>
<path d="M124.773 20.7955H117.841V27.7273H124.773V20.7955Z" fill="#B0120A"/>
<path d="M131.705 20.7955H124.773V27.7273H131.705V20.7955Z" fill="#242424"/>
<path d="M83.1816 27.7273H76.2498V34.6591H83.1816V27.7273Z" fill="#242424"/>
<path d="M90.1137 27.7273H83.1819V34.6591H90.1137V27.7273Z" fill="#F69988"/>
<path d="M97.0453 27.7273H90.1135V34.6591H97.0453V27.7273Z" fill="#D01716"/>
<path d="M103.977 27.7273H97.0457V34.6591H103.977V27.7273Z" fill="#D01716"/>
<path d="M110.909 27.7273H103.977V34.6591H110.909V27.7273Z" fill="#D01716"/>
<path d="M117.841 27.7273H110.909V34.6591H117.841V27.7273Z" fill="#B0120A"/>
<path d="M124.773 27.7273H117.841V34.6591H124.773V27.7273Z" fill="#B0120A"/>
<path d="M131.705 27.7273H124.773V34.6591H131.705V27.7273Z" fill="#242424"/>
<path d="M76.2502 34.6591H69.3184V41.5909H76.2502V34.6591Z" fill="#242424"/>
<path d="M83.1816 34.6591H76.2498V41.5909H83.1816V34.6591Z" fill="#F69988"/>
<path d="M90.1137 34.6591H83.1819V41.5909H90.1137V34.6591Z" fill="#F69988"/>
<path d="M97.0453 34.6591H90.1135V41.5909H97.0453V34.6591Z" fill="#D01716"/>
<path d="M103.977 34.6591H97.0457V41.5909H103.977V34.6591Z" fill="#D01716"/>
<path d="M110.909 34.6591H103.977V41.5909H110.909V34.6591Z" fill="#D01716"/>
<path d="M117.841 34.6591H110.909V41.5909H117.841V34.6591Z" fill="#B0120A"/>
<path d="M124.773 34.6591H117.841V41.5909H124.773V34.6591Z" fill="#B0120A"/>
<path d="M131.705 34.6591H124.773V41.5909H131.705V34.6591Z" fill="#B0120A"/>
<path d="M138.636 34.6591H131.704V41.5909H138.636V34.6591Z" fill="#242424"/>
<path d="M69.3183 41.5909H62.3865V48.5227H69.3183V41.5909Z" fill="#242424"/>
<path d="M76.2502 41.5909H69.3184V48.5227H76.2502V41.5909Z" fill="#F69988"/>
<path d="M83.1816 41.5909H76.2498V48.5227H83.1816V41.5909Z" fill="#F69988"/>
<path d="M90.1137 41.5909H83.1819V48.5227H90.1137V41.5909Z" fill="#D01716"/>
<path d="M97.0453 41.5909H90.1135V48.5227H97.0453V41.5909Z" fill="#D01716"/>
<path d="M103.977 41.5909H97.0457V48.5227H103.977V41.5909Z" fill="#D01716"/>
<path d="M110.909 41.5909H103.977V48.5227H110.909V41.5909Z" fill="#D01716"/>
<path d="M117.841 41.5909H110.909V48.5227H117.841V41.5909Z" fill="#D01716"/>
<path d="M124.773 41.5909H117.841V48.5227H124.773V41.5909Z" fill="#B0120A"/>
<path d="M131.705 41.5909H124.773V48.5227H131.705V41.5909Z" fill="#B0120A"/>
<path d="M138.636 41.5909H131.704V48.5227H138.636V41.5909Z" fill="#B0120A"/>
<path d="M145.568 41.5909H138.636V48.5227H145.568V41.5909Z" fill="#242424"/>
<path d="M62.3864 48.5227H55.4546V55.4545H62.3864V48.5227Z" fill="#242424"/>
<path d="M69.3183 48.5227H62.3865V55.4545H69.3183V48.5227Z" fill="#F69988"/>
<path d="M76.2502 48.5227H69.3184V55.4545H76.2502V48.5227Z" fill="#F69988"/>
<path d="M83.1816 48.5227H76.2498V55.4545H83.1816V48.5227Z" fill="#D01716"/>
<path d="M90.1137 48.5227H83.1819V55.4545H90.1137V48.5227Z" fill="#D01716"/>
<path d="M97.0453 48.5227H90.1135V55.4545H97.0453V48.5227Z" fill="#D01716"/>
<path d="M103.977 48.5227H97.0457V55.4545H103.977V48.5227Z" fill="#D01716"/>
<path d="M110.909 48.5227H103.977V55.4545H110.909V48.5227Z" fill="#D01716"/>
<path d="M117.841 48.5227H110.909V55.4545H117.841V48.5227Z" fill="#D01716"/>
<path d="M124.773 48.5227H117.841V55.4545H124.773V48.5227Z" fill="#D01716"/>
<path d="M131.705 48.5227H124.773V55.4545H131.705V48.5227Z" fill="#B0120A"/>
<path d="M138.636 48.5227H131.704V55.4545H138.636V48.5227Z" fill="#B0120A"/>
<path d="M145.568 48.5227H138.636V55.4545H145.568V48.5227Z" fill="#B0120A"/>
<path d="M152.5 48.5227H145.568V55.4545H152.5V48.5227Z" fill="#242424"/>
<path d="M62.3864 55.4546H55.4546V62.3864H62.3864V55.4546Z" fill="#242424"/>
<path d="M69.3183 55.4546H62.3865V62.3864H69.3183V55.4546Z" fill="#F69988"/>
<path d="M76.2502 55.4546H69.3184V62.3864H76.2502V55.4546Z" fill="#D01716"/>
<path d="M83.1816 55.4546H76.2498V62.3864H83.1816V55.4546Z" fill="#D01716"/>
<path d="M90.1137 55.4546H83.1819V62.3864H90.1137V55.4546Z" fill="#D01716"/>
<path d="M97.0453 55.4546H90.1135V62.3864H97.0453V55.4546Z" fill="#D01716"/>
<path d="M103.977 55.4546H97.0457V62.3864H103.977V55.4546Z" fill="#D01716"/>
<path d="M110.909 55.4546H103.977V62.3864H110.909V55.4546Z" fill="#D01716"/>
<path d="M117.841 55.4546H110.909V62.3864H117.841V55.4546Z" fill="#D01716"/>
<path d="M124.773 55.4546H117.841V62.3864H124.773V55.4546Z" fill="#D01716"/>
<path d="M131.705 55.4546H124.773V62.3864H131.705V55.4546Z" fill="#D01716"/>
<path d="M138.636 55.4546H131.704V62.3864H138.636V55.4546Z" fill="#B0120A"/>
<path d="M145.568 55.4546H138.636V62.3864H145.568V55.4546Z" fill="#B0120A"/>
<path d="M152.5 55.4546H145.568V62.3864H152.5V55.4546Z" fill="#242424"/>
<path d="M55.4545 62.3864H48.5227V69.3182H55.4545V62.3864Z" fill="#242424"/>
<path d="M62.3864 62.3864H55.4546V69.3182H62.3864V62.3864Z" fill="#F69988"/>
<path d="M69.3183 62.3864H62.3865V69.3182H69.3183V62.3864Z" fill="#F69988"/>
<path d="M76.2502 62.3864H69.3184V69.3182H76.2502V62.3864Z" fill="#D01716"/>
<path d="M83.1816 62.3864H76.2498V69.3182H83.1816V62.3864Z" fill="#D01716"/>
<path d="M90.1137 62.3864H83.1819V69.3182H90.1137V62.3864Z" fill="#D01716"/>
<path d="M97.0453 62.3864H90.1135V69.3182H97.0453V62.3864Z" fill="#D01716"/>
<path d="M103.977 62.3864H97.0457V69.3182H103.977V62.3864Z" fill="#D01716"/>
<path d="M110.909 62.3864H103.977V69.3182H110.909V62.3864Z" fill="#D01716"/>
<path d="M117.841 62.3864H110.909V69.3182H117.841V62.3864Z" fill="#D01716"/>
<path d="M124.773 62.3864H117.841V69.3182H124.773V62.3864Z" fill="#D01716"/>
<path d="M131.705 62.3864H124.773V69.3182H131.705V62.3864Z" fill="#D01716"/>
<path d="M138.636 62.3864H131.704V69.3182H138.636V62.3864Z" fill="#D01716"/>
<path d="M145.568 62.3864H138.636V69.3182H145.568V62.3864Z" fill="#B0120A"/>
<path d="M152.5 62.3864H145.568V69.3182H152.5V62.3864Z" fill="#B0120A"/>
<path d="M159.432 62.3864H152.5V69.3182H159.432V62.3864Z" fill="#242424"/>
<path d="M55.4545 69.3182H48.5227V76.25H55.4545V69.3182Z" fill="#242424"/>
<path d="M62.3864 69.3182H55.4546V76.25H62.3864V69.3182Z" fill="#F69988"/>
<path d="M69.3183 69.3182H62.3865V76.25H69.3183V69.3182Z" fill="#D01716"/>
<path d="M76.2502 69.3182H69.3184V76.25H76.2502V69.3182Z" fill="#D01716"/>
<path d="M83.1816 69.3182H76.2498V76.25H83.1816V69.3182Z" fill="#D01716"/>
<path d="M90.1137 69.3182H83.1819V76.25H90.1137V69.3182Z" fill="#D01716"/>
<path d="M97.0453 69.3182H90.1135V76.25H97.0453V69.3182Z" fill="#D01716"/>
<path d="M103.977 69.3182H97.0457V76.25H103.977V69.3182Z" fill="#D01716"/>
<path d="M110.909 69.3182H103.977V76.25H110.909V69.3182Z" fill="#D01716"/>
<path d="M117.841 69.3182H110.909V76.25H117.841V69.3182Z" fill="#D01716"/>
<path d="M124.773 69.3182H117.841V76.25H124.773V69.3182Z" fill="#D01716"/>
<path d="M131.705 69.3182H124.773V76.25H131.705V69.3182Z" fill="#D01716"/>
<path d="M138.636 69.3182H131.704V76.25H138.636V69.3182Z" fill="#D01716"/>
<path d="M145.568 69.3182H138.636V76.25H145.568V69.3182Z" fill="#B0120A"/>
<path d="M152.5 69.3182H145.568V76.25H152.5V69.3182Z" fill="#B0120A"/>
<path d="M159.432 69.3182H152.5V76.25H159.432V69.3182Z" fill="#242424"/>
<path d="M55.4545 76.25H48.5227V83.1818H55.4545V76.25Z" fill="#242424"/>
<path d="M62.3864 76.25H55.4546V83.1818H62.3864V76.25Z" fill="#F69988"/>
<path d="M69.3183 76.25H62.3865V83.1818H69.3183V76.25Z" fill="#D01716"/>
<path d="M76.2502 76.25H69.3184V83.1818H76.2502V76.25Z" fill="#D01716"/>
<path d="M83.1816 76.25H76.2498V83.1818H83.1816V76.25Z" fill="#D01716"/>
<path d="M90.1137 76.25H83.1819V83.1818H90.1137V76.25Z" fill="#D01716"/>
<path d="M97.0453 76.25H90.1135V83.1818H97.0453V76.25Z" fill="#D01716"/>
<path d="M103.977 76.25H97.0457V83.1818H103.977V76.25Z" fill="#D01716"/>
<path d="M110.909 76.25H103.977V83.1818H110.909V76.25Z" fill="#D01716"/>
<path d="M117.841 76.25H110.909V83.1818H117.841V76.25Z" fill="#D01716"/>
<path d="M124.773 76.25H117.841V83.1818H124.773V76.25Z" fill="#D01716"/>
<path d="M131.705 76.25H124.773V83.1818H131.705V76.25Z" fill="#D01716"/>
<path d="M138.636 76.25H131.704V83.1818H138.636V76.25Z" fill="#D01716"/>
<path d="M145.568 76.25H138.636V83.1818H145.568V76.25Z" fill="#B0120A"/>
<path d="M152.5 76.25H145.568V83.1818H152.5V76.25Z" fill="#B0120A"/>
<path d="M159.432 76.25H152.5V83.1818H159.432V76.25Z" fill="#242424"/>
<path d="M55.4545 83.1818H48.5227V90.1136H55.4545V83.1818Z" fill="#242424"/>
<path d="M62.3864 83.1818H55.4546V90.1136H62.3864V83.1818Z" fill="#EEEEEE"/>
<path d="M69.3183 83.1818H62.3865V90.1136H69.3183V83.1818Z" fill="#EEEEEE"/>
<path d="M76.2502 83.1818H69.3184V90.1136H76.2502V83.1818Z" fill="#EEEEEE"/>
<path d="M83.1816 83.1818H76.2498V90.1136H83.1816V83.1818Z" fill="#EEEEEE"/>
<path d="M90.1137 83.1818H83.1819V90.1136H90.1137V83.1818Z" fill="#EEEEEE"/>
<path d="M97.0453 83.1818H90.1135V90.1136H97.0453V83.1818Z" fill="#EEEEEE"/>
<path d="M103.977 83.1818H97.0457V90.1136H103.977V83.1818Z" fill="#EEEEEE"/>
<path d="M110.909 83.1818H103.977V90.1136H110.909V83.1818Z" fill="#EEEEEE"/>
<path d="M117.841 83.1818H110.909V90.1136H117.841V83.1818Z" fill="#EEEEEE"/>
<path d="M124.773 83.1818H117.841V90.1136H124.773V83.1818Z" fill="#EEEEEE"/>
<path d="M131.705 83.1818H124.773V90.1136H131.705V83.1818Z" fill="#EEEEEE"/>
<path d="M138.636 83.1818H131.704V90.1136H138.636V83.1818Z" fill="#EEEEEE"/>
<path d="M145.568 83.1818H138.636V90.1136H145.568V83.1818Z" fill="#BDBDBD"/>
<path d="M152.5 83.1818H145.568V90.1136H152.5V83.1818Z" fill="#BDBDBD"/>
<path d="M159.432 83.1818H152.5V90.1136H159.432V83.1818Z" fill="#242424"/>
<path d="M55.4545 90.1136H48.5227V97.0455H55.4545V90.1136Z" fill="#242424"/>
<path d="M62.3864 90.1136H55.4546V97.0455H62.3864V90.1136Z" fill="#EEEEEE"/>
<path d="M69.3183 90.1136H62.3865V97.0455H69.3183V90.1136Z" fill="#EEEEEE"/>
<path d="M76.2502 90.1136H69.3184V97.0455H76.2502V90.1136Z" fill="#EEEEEE"/>
<path d="M83.1816 90.1136H76.2498V97.0455H83.1816V90.1136Z" fill="#EEEEEE"/>
<path d="M90.1137 90.1136H83.1819V97.0455H90.1137V90.1136Z" fill="#EEEEEE"/>
<path d="M97.0453 90.1136H90.1135V97.0455H97.0453V90.1136Z" fill="#EEEEEE"/>
<path d="M103.977 90.1136H97.0457V97.0455H103.977V90.1136Z" fill="#EEEEEE"/>
<path d="M110.909 90.1136H103.977V97.0455H110.909V90.1136Z" fill="#EEEEEE"/>
<path d="M117.841 90.1136H110.909V97.0455H117.841V90.1136Z" fill="#EEEEEE"/>
<path d="M124.773 90.1136H117.841V97.0455H124.773V90.1136Z" fill="#EEEEEE"/>
<path d="M131.705 90.1136H124.773V97.0455H131.705V90.1136Z" fill="#EEEEEE"/>
<path d="M138.636 90.1136H131.704V97.0455H138.636V90.1136Z" fill="#EEEEEE"/>
<path d="M145.568 90.1136H138.636V97.0455H145.568V90.1136Z" fill="#BDBDBD"/>
<path d="M152.5 90.1136H145.568V97.0455H152.5V90.1136Z" fill="#BDBDBD"/>
<path d="M159.432 90.1136H152.5V97.0455H159.432V90.1136Z" fill="#242424"/>
<path d="M55.4545 97.0454H48.5227V103.977H55.4545V97.0454Z" fill="#242424"/>
<path d="M62.3864 97.0454H55.4546V103.977H62.3864V97.0454Z" fill="#EEEEEE"/>
<path d="M69.3183 97.0454H62.3865V103.977H69.3183V97.0454Z" fill="#EEEEEE"/>
<path d="M76.2502 97.0454H69.3184V103.977H76.2502V97.0454Z" fill="#EEEEEE"/>
<path d="M83.1816 97.0454H76.2498V103.977H83.1816V97.0454Z" fill="#EEEEEE"/>
<path d="M90.1137 97.0454H83.1819V103.977H90.1137V97.0454Z" fill="#EEEEEE"/>
<path d="M97.0453 97.0454H90.1135V103.977H97.0453V97.0454Z" fill="#747FDF"/>
<path d="M103.977 97.0454H97.0457V103.977H103.977V97.0454Z" fill="#747FDF"/>
<path d="M110.909 97.0454H103.977V103.977H110.909V97.0454Z" fill="#747FDF"/>
<path d="M117.841 97.0454H110.909V103.977H117.841V97.0454Z" fill="#747FDF"/>
<path d="M124.773 97.0454H117.841V103.977H124.773V97.0454Z" fill="#EEEEEE"/>
<path d="M131.705 97.0454H124.773V103.977H131.705V97.0454Z" fill="#EEEEEE"/>
<path d="M138.636 97.0454H131.704V103.977H138.636V97.0454Z" fill="#EEEEEE"/>
<path d="M145.568 97.0454H138.636V103.977H145.568V97.0454Z" fill="#BDBDBD"/>
<path d="M152.5 97.0454H145.568V103.977H152.5V97.0454Z" fill="#BDBDBD"/>
<path d="M159.432 97.0454H152.5V103.977H159.432V97.0454Z" fill="#242424"/>
<path d="M55.4545 103.977H48.5227V110.909H55.4545V103.977Z" fill="#242424"/>
<path d="M62.3864 103.977H55.4546V110.909H62.3864V103.977Z" fill="#EEEEEE"/>
<path d="M69.3183 103.977H62.3865V110.909H69.3183V103.977Z" fill="#EEEEEE"/>
<path d="M76.2502 103.977H69.3184V110.909H76.2502V103.977Z" fill="#EEEEEE"/>
<path d="M83.1816 103.977H76.2498V110.909H83.1816V103.977Z" fill="#EEEEEE"/>
<path d="M90.1137 103.977H83.1819V110.909H90.1137V103.977Z" fill="#747FDF"/>
<path d="M97.0453 103.977H90.1135V110.909H97.0453V103.977Z" fill="#747FDF"/>
<path d="M103.977 103.977H97.0457V110.909H103.977V103.977Z" fill="#0B1466"/>
<path d="M110.909 103.977H103.977V110.909H110.909V103.977Z" fill="#0B1466"/>
<path d="M117.841 103.977H110.909V110.909H117.841V103.977Z" fill="#0B1466"/>
<path d="M124.773 103.977H117.841V110.909H124.773V103.977Z" fill="#0B1466"/>
<path d="M131.705 103.977H124.773V110.909H131.705V103.977Z" fill="#EEEEEE"/>
<path d="M138.636 103.977H131.704V110.909H138.636V103.977Z" fill="#EEEEEE"/>
<path d="M145.568 103.977H138.636V110.909H145.568V103.977Z" fill="#BDBDBD"/>
<path d="M152.5 103.977H145.568V110.909H152.5V103.977Z" fill="#BDBDBD"/>
<path d="M159.432 103.977H152.5V110.909H159.432V103.977Z" fill="#242424"/>
<path d="M55.4545 110.909H48.5227V117.841H55.4545V110.909Z" fill="#242424"/>
<path d="M62.3864 110.909H55.4546V117.841H62.3864V110.909Z" fill="#EEEEEE"/>
<path d="M69.3183 110.909H62.3865V117.841H69.3183V110.909Z" fill="#EEEEEE"/>
<path d="M76.2502 110.909H69.3184V117.841H76.2502V110.909Z" fill="#EEEEEE"/>
<path d="M83.1816 110.909H76.2498V117.841H83.1816V110.909Z" fill="#747FDF"/>
<path d="M90.1137 110.909H83.1819V117.841H90.1137V110.909Z" fill="#747FDF"/>
<path d="M97.0453 110.909H90.1135V117.841H97.0453V110.909Z" fill="#C1C4D8"/>
<path d="M103.977 110.909H97.0457V117.841H103.977V110.909Z" fill="#C1C4D8"/>
<path d="M110.909 110.909H103.977V117.841H110.909V110.909Z" fill="#0B1466"/>
<path d="M117.841 110.909H110.909V117.841H117.841V110.909Z" fill="#0B1466"/>
<path d="M124.773 110.909H117.841V117.841H124.773V110.909Z" fill="#0B1466"/>
<path d="M131.705 110.909H124.773V117.841H131.705V110.909Z" fill="#050A40"/>
<path d="M138.636 110.909H131.704V117.841H138.636V110.909Z" fill="#EEEEEE"/>
<path d="M145.568 110.909H138.636V117.841H145.568V110.909Z" fill="#BDBDBD"/>
<path d="M152.5 110.909H145.568V117.841H152.5V110.909Z" fill="#BDBDBD"/>
<path d="M159.432 110.909H152.5V117.841H159.432V110.909Z" fill="#242424"/>
<path d="M34.6589 117.841H27.7271V124.773H34.6589V117.841Z" fill="#242424"/>
<path d="M41.5908 117.841H34.6589V124.773H41.5908V117.841Z" fill="#242424"/>
<path d="M48.5226 117.841H41.5908V124.773H48.5226V117.841Z" fill="#242424"/>
<path d="M55.4545 117.841H48.5227V124.773H55.4545V117.841Z" fill="#242424"/>
<path d="M62.3864 117.841H55.4546V124.773H62.3864V117.841Z" fill="#EEEEEE"/>
<path d="M69.3183 117.841H62.3865V124.773H69.3183V117.841Z" fill="#EEEEEE"/>
<path d="M76.2502 117.841H69.3184V124.773H76.2502V117.841Z" fill="#EEEEEE"/>
<path d="M83.1816 117.841H76.2498V124.773H83.1816V117.841Z" fill="#747FDF"/>
<path d="M90.1137 117.841H83.1819V124.773H90.1137V117.841Z" fill="#0B1466"/>
<path d="M97.0453 117.841H90.1135V124.773H97.0453V117.841Z" fill="#C1C4D8"/>
<path d="M103.977 117.841H97.0457V124.773H103.977V117.841Z" fill="#C1C4D8"/>
<path d="M110.909 117.841H103.977V124.773H110.909V117.841Z" fill="#0B1466"/>
<path d="M117.841 117.841H110.909V124.773H117.841V117.841Z" fill="#0B1466"/>
<path d="M124.773 117.841H117.841V124.773H124.773V117.841Z" fill="#0B1466"/>
<path d="M131.705 117.841H124.773V124.773H131.705V117.841Z" fill="#050A40"/>
<path d="M138.636 117.841H131.704V124.773H138.636V117.841Z" fill="#EEEEEE"/>
<path d="M145.568 117.841H138.636V124.773H145.568V117.841Z" fill="#BDBDBD"/>
<path d="M152.5 117.841H145.568V124.773H152.5V117.841Z" fill="#BDBDBD"/>
<path d="M159.432 117.841H152.5V124.773H159.432V117.841Z" fill="#242424"/>
<path d="M166.364 117.841H159.432V124.773H166.364V117.841Z" fill="#242424"/>
<path d="M173.296 117.841H166.364V124.773H173.296V117.841Z" fill="#242424"/>
<path d="M180.227 117.841H173.296V124.773H180.227V117.841Z" fill="#242424"/>
<path d="M27.7272 124.773H20.7954V131.705H27.7272V124.773Z" fill="#242424"/>
<path d="M34.6589 124.773H27.7271V131.705H34.6589V124.773Z" fill="#F69988"/>
<path d="M41.5908 124.773H34.6589V131.705H41.5908V124.773Z" fill="#F69988"/>
<path d="M48.5226 124.773H41.5908V131.705H48.5226V124.773Z" fill="#D01716"/>
<path d="M55.4545 124.773H48.5227V131.705H55.4545V124.773Z" fill="#242424"/>
<path d="M62.3864 124.773H55.4546V131.705H62.3864V124.773Z" fill="#EEEEEE"/>
<path d="M69.3183 124.773H62.3865V131.705H69.3183V124.773Z" fill="#EEEEEE"/>
<path d="M76.2502 124.773H69.3184V131.705H76.2502V124.773Z" fill="#EEEEEE"/>
<path d="M83.1816 124.773H76.2498V131.705H83.1816V124.773Z" fill="#747FDF"/>
<path d="M90.1137 124.773H83.1819V131.705H90.1137V124.773Z" fill="#0B1466"/>
<path d="M97.0453 124.773H90.1135V131.705H97.0453V124.773Z" fill="#0B1466"/>
<path d="M103.977 124.773H97.0457V131.705H103.977V124.773Z" fill="#0B1466"/>
<path d="M110.909 124.773H103.977V131.705H110.909V124.773Z" fill="#0B1466"/>
<path d="M117.841 124.773H110.909V131.705H117.841V124.773Z" fill="#0B1466"/>
<path d="M124.773 124.773H117.841V131.705H124.773V124.773Z" fill="#050A40"/>
<path d="M131.705 124.773H124.773V131.705H131.705V124.773Z" fill="#050A40"/>
<path d="M138.636 124.773H131.704V131.705H138.636V124.773Z" fill="#EEEEEE"/>
<path d="M145.568 124.773H138.636V131.705H145.568V124.773Z" fill="#BDBDBD"/>
<path d="M152.5 124.773H145.568V131.705H152.5V124.773Z" fill="#BDBDBD"/>
<path d="M159.432 124.773H152.5V131.705H159.432V124.773Z" fill="#242424"/>
<path d="M166.364 124.773H159.432V131.705H166.364V124.773Z" fill="#B0120A"/>
<path d="M173.296 124.773H166.364V131.705H173.296V124.773Z" fill="#B0120A"/>
<path d="M180.227 124.773H173.296V131.705H180.227V124.773Z" fill="#B0120A"/>
<path d="M187.159 124.773H180.227V131.705H187.159V124.773Z" fill="#242424"/>
<path d="M20.7956 131.705H13.8638V138.636H20.7956V131.705Z" fill="#242424"/>
<path d="M27.7272 131.705H20.7954V138.636H27.7272V131.705Z" fill="#F69988"/>
<path d="M34.6589 131.705H27.7271V138.636H34.6589V131.705Z" fill="#D01716"/>
<path d="M41.5908 131.705H34.6589V138.636H41.5908V131.705Z" fill="#D01716"/>
<path d="M48.5226 131.705H41.5908V138.636H48.5226V131.705Z" fill="#D01716"/>
<path d="M55.4545 131.705H48.5227V138.636H55.4545V131.705Z" fill="#242424"/>
<path d="M62.3864 131.705H55.4546V138.636H62.3864V131.705Z" fill="#EEEEEE"/>
<path d="M69.3183 131.705H62.3865V138.636H69.3183V131.705Z" fill="#EEEEEE"/>
<path d="M76.2502 131.705H69.3184V138.636H76.2502V131.705Z" fill="#EEEEEE"/>
<path d="M83.1816 131.705H76.2498V138.636H83.1816V131.705Z" fill="#747FDF"/>
<path d="M90.1137 131.705H83.1819V138.636H90.1137V131.705Z" fill="#0B1466"/>
<path d="M97.0453 131.705H90.1135V138.636H97.0453V131.705Z" fill="#0B1466"/>
<path d="M103.977 131.705H97.0457V138.636H103.977V131.705Z" fill="#0B1466"/>
<path d="M110.909 131.705H103.977V138.636H110.909V131.705Z" fill="#0B1466"/>
<path d="M117.841 131.705H110.909V138.636H117.841V131.705Z" fill="#050A40"/>
<path d="M124.773 131.705H117.841V138.636H124.773V131.705Z" fill="#050A40"/>
<path d="M131.705 131.705H124.773V138.636H131.705V131.705Z" fill="#050A40"/>
<path d="M138.636 131.705H131.704V138.636H138.636V131.705Z" fill="#EEEEEE"/>
<path d="M145.568 131.705H138.636V138.636H145.568V131.705Z" fill="#BDBDBD"/>
<path d="M152.5 131.705H145.568V138.636H152.5V131.705Z" fill="#BDBDBD"/>
<path d="M159.432 131.705H152.5V138.636H159.432V131.705Z" fill="#242424"/>
<path d="M166.364 131.705H159.432V138.636H166.364V131.705Z" fill="#B0120A"/>
<path d="M173.296 131.705H166.364V138.636H173.296V131.705Z" fill="#B0120A"/>
<path d="M180.227 131.705H173.296V138.636H180.227V131.705Z" fill="#D01716"/>
<path d="M187.159 131.705H180.227V138.636H187.159V131.705Z" fill="#D01716"/>
<path d="M194.091 131.705H187.159V138.636H194.091V131.705Z" fill="#242424"/>
<path d="M20.7956 138.636H13.8638V145.568H20.7956V138.636Z" fill="#242424"/>
<path d="M27.7272 138.636H20.7954V145.568H27.7272V138.636Z" fill="#F69988"/>
<path d="M34.6589 138.636H27.7271V145.568H34.6589V138.636Z" fill="#D01716"/>
<path d="M41.5908 138.636H34.6589V145.568H41.5908V138.636Z" fill="#D01716"/>
<path d="M48.5226 138.636H41.5908V145.568H48.5226V138.636Z" fill="#D01716"/>
<path d="M55.4545 138.636H48.5227V145.568H55.4545V138.636Z" fill="#242424"/>
<path d="M62.3864 138.636H55.4546V145.568H62.3864V138.636Z" fill="#EEEEEE"/>
<path d="M69.3183 138.636H62.3865V145.568H69.3183V138.636Z" fill="#EEEEEE"/>
<path d="M76.2502 138.636H69.3184V145.568H76.2502V138.636Z" fill="#EEEEEE"/>
<path d="M83.1816 138.636H76.2498V145.568H83.1816V138.636Z" fill="#EEEEEE"/>
<path d="M90.1137 138.636H83.1819V145.568H90.1137V138.636Z" fill="#0B1466"/>
<path d="M97.0453 138.636H90.1135V145.568H97.0453V138.636Z" fill="#0B1466"/>
<path d="M103.977 138.636H97.0457V145.568H103.977V138.636Z" fill="#0B1466"/>
<path d="M110.909 138.636H103.977V145.568H110.909V138.636Z" fill="#050A40"/>
<path d="M117.841 138.636H110.909V145.568H117.841V138.636Z" fill="#050A40"/>
<path d="M124.773 138.636H117.841V145.568H124.773V138.636Z" fill="#050A40"/>
<path d="M131.705 138.636H124.773V145.568H131.705V138.636Z" fill="#EEEEEE"/>
<path d="M138.636 138.636H131.704V145.568H138.636V138.636Z" fill="#EEEEEE"/>
<path d="M145.568 138.636H138.636V145.568H145.568V138.636Z" fill="#BDBDBD"/>
<path d="M152.5 138.636H145.568V145.568H152.5V138.636Z" fill="#BDBDBD"/>
<path d="M159.432 138.636H152.5V145.568H159.432V138.636Z" fill="#242424"/>
<path d="M166.364 138.636H159.432V145.568H166.364V138.636Z" fill="#B0120A"/>
<path d="M173.296 138.636H166.364V145.568H173.296V138.636Z" fill="#B0120A"/>
<path d="M180.227 138.636H173.296V145.568H180.227V138.636Z" fill="#D01716"/>
<path d="M187.159 138.636H180.227V145.568H187.159V138.636Z" fill="#D01716"/>
<path d="M194.091 138.636H187.159V145.568H194.091V138.636Z" fill="#242424"/>
<path d="M13.8635 145.568H6.93164V152.5H13.8635V145.568Z" fill="#242424"/>
<path d="M20.7956 145.568H13.8638V152.5H20.7956V145.568Z" fill="#F69988"/>
<path d="M27.7272 145.568H20.7954V152.5H27.7272V145.568Z" fill="#D01716"/>
<path d="M34.6589 145.568H27.7271V152.5H34.6589V145.568Z" fill="#D01716"/>
<path d="M41.5908 145.568H34.6589V152.5H41.5908V145.568Z" fill="#D01716"/>
<path d="M48.5226 145.568H41.5908V152.5H48.5226V145.568Z" fill="#D01716"/>
<path d="M55.4545 145.568H48.5227V152.5H55.4545V145.568Z" fill="#242424"/>
<path d="M62.3864 145.568H55.4546V152.5H62.3864V145.568Z" fill="#EEEEEE"/>
<path d="M69.3183 145.568H62.3865V152.5H69.3183V145.568Z" fill="#EEEEEE"/>
<path d="M76.2502 145.568H69.3184V152.5H76.2502V145.568Z" fill="#EEEEEE"/>
<path d="M83.1816 145.568H76.2498V152.5H83.1816V145.568Z" fill="#EEEEEE"/>
<path d="M90.1137 145.568H83.1819V152.5H90.1137V145.568Z" fill="#EEEEEE"/>
<path d="M97.0453 145.568H90.1135V152.5H97.0453V145.568Z" fill="#050A40"/>
<path d="M103.977 145.568H97.0457V152.5H103.977V145.568Z" fill="#050A40"/>
<path d="M110.909 145.568H103.977V152.5H110.909V145.568Z" fill="#050A40"/>
<path d="M117.841 145.568H110.909V152.5H117.841V145.568Z" fill="#050A40"/>
<path d="M124.773 145.568H117.841V152.5H124.773V145.568Z" fill="#EEEEEE"/>
<path d="M131.705 145.568H124.773V152.5H131.705V145.568Z" fill="#EEEEEE"/>
<path d="M138.636 145.568H131.704V152.5H138.636V145.568Z" fill="#EEEEEE"/>
<path d="M145.568 145.568H138.636V152.5H145.568V145.568Z" fill="#BDBDBD"/>
<path d="M152.5 145.568H145.568V152.5H152.5V145.568Z" fill="#BDBDBD"/>
<path d="M159.432 145.568H152.5V152.5H159.432V145.568Z" fill="#242424"/>
<path d="M166.364 145.568H159.432V152.5H166.364V145.568Z" fill="#B0120A"/>
<path d="M173.296 145.568H166.364V152.5H173.296V145.568Z" fill="#B0120A"/>
<path d="M180.227 145.568H173.296V152.5H180.227V145.568Z" fill="#D01716"/>
<path d="M187.159 145.568H180.227V152.5H187.159V145.568Z" fill="#D01716"/>
<path d="M194.091 145.568H187.159V152.5H194.091V145.568Z" fill="#D01716"/>
<path d="M201.023 145.568H194.091V152.5H201.023V145.568Z" fill="#242424"/>
<path d="M13.8635 152.5H6.93164V159.432H13.8635V152.5Z" fill="#242424"/>
<path d="M20.7956 152.5H13.8638V159.432H20.7956V152.5Z" fill="#F69988"/>
<path d="M27.7272 152.5H20.7954V159.432H27.7272V152.5Z" fill="#D01716"/>
<path d="M34.6589 152.5H27.7271V159.432H34.6589V152.5Z" fill="#D01716"/>
<path d="M41.5908 152.5H34.6589V159.432H41.5908V152.5Z" fill="#D01716"/>
<path d="M48.5226 152.5H41.5908V159.432H48.5226V152.5Z" fill="#B0120A"/>
<path d="M55.4545 152.5H48.5227V159.432H55.4545V152.5Z" fill="#242424"/>
<path d="M62.3864 152.5H55.4546V159.432H62.3864V152.5Z" fill="#EEEEEE"/>
<path d="M69.3183 152.5H62.3865V159.432H69.3183V152.5Z" fill="#EEEEEE"/>
<path d="M76.2502 152.5H69.3184V159.432H76.2502V152.5Z" fill="#EEEEEE"/>
<path d="M83.1816 152.5H76.2498V159.432H83.1816V152.5Z" fill="#EEEEEE"/>
<path d="M90.1137 152.5H83.1819V159.432H90.1137V152.5Z" fill="#EEEEEE"/>
<path d="M97.0453 152.5H90.1135V159.432H97.0453V152.5Z" fill="#EEEEEE"/>
<path d="M103.977 152.5H97.0457V159.432H103.977V152.5Z" fill="#EEEEEE"/>
<path d="M110.909 152.5H103.977V159.432H110.909V152.5Z" fill="#EEEEEE"/>
<path d="M117.841 152.5H110.909V159.432H117.841V152.5Z" fill="#EEEEEE"/>
<path d="M124.773 152.5H117.841V159.432H124.773V152.5Z" fill="#EEEEEE"/>
<path d="M131.705 152.5H124.773V159.432H131.705V152.5Z" fill="#EEEEEE"/>
<path d="M138.636 152.5H131.704V159.432H138.636V152.5Z" fill="#EEEEEE"/>
<path d="M145.568 152.5H138.636V159.432H145.568V152.5Z" fill="#BDBDBD"/>
<path d="M152.5 152.5H145.568V159.432H152.5V152.5Z" fill="#BDBDBD"/>
<path d="M159.432 152.5H152.5V159.432H159.432V152.5Z" fill="#242424"/>
<path d="M166.364 152.5H159.432V159.432H166.364V152.5Z" fill="#B0120A"/>
<path d="M173.296 152.5H166.364V159.432H173.296V152.5Z" fill="#B0120A"/>
<path d="M180.227 152.5H173.296V159.432H180.227V152.5Z" fill="#D01716"/>
<path d="M187.159 152.5H180.227V159.432H187.159V152.5Z" fill="#D01716"/>
<path d="M194.091 152.5H187.159V159.432H194.091V152.5Z" fill="#D01716"/>
<path d="M201.023 152.5H194.091V159.432H201.023V152.5Z" fill="#242424"/>
<path d="M13.8635 159.432H6.93164V166.364H13.8635V159.432Z" fill="#242424"/>
<path d="M20.7956 159.432H13.8638V166.364H20.7956V159.432Z" fill="#F69988"/>
<path d="M27.7272 159.432H20.7954V166.364H27.7272V159.432Z" fill="#D01716"/>
<path d="M34.6589 159.432H27.7271V166.364H34.6589V159.432Z" fill="#D01716"/>
<path d="M41.5908 159.432H34.6589V166.364H41.5908V159.432Z" fill="#D01716"/>
<path d="M48.5226 159.432H41.5908V166.364H48.5226V159.432Z" fill="#B0120A"/>
<path d="M55.4545 159.432H48.5227V166.364H55.4545V159.432Z" fill="#242424"/>
<path d="M62.3864 159.432H55.4546V166.364H62.3864V159.432Z" fill="#EEEEEE"/>
<path d="M69.3183 159.432H62.3865V166.364H69.3183V159.432Z" fill="#EEEEEE"/>
<path d="M76.2502 159.432H69.3184V166.364H76.2502V159.432Z" fill="#EEEEEE"/>
<path d="M83.1816 159.432H76.2498V166.364H83.1816V159.432Z" fill="#EEEEEE"/>
<path d="M90.1137 159.432H83.1819V166.364H90.1137V159.432Z" fill="#EEEEEE"/>
<path d="M97.0453 159.432H90.1135V166.364H97.0453V159.432Z" fill="#EEEEEE"/>
<path d="M103.977 159.432H97.0457V166.364H103.977V159.432Z" fill="#EEEEEE"/>
<path d="M110.909 159.432H103.977V166.364H110.909V159.432Z" fill="#EEEEEE"/>
<path d="M117.841 159.432H110.909V166.364H117.841V159.432Z" fill="#EEEEEE"/>
<path d="M124.773 159.432H117.841V166.364H124.773V159.432Z" fill="#EEEEEE"/>
<path d="M131.705 159.432H124.773V166.364H131.705V159.432Z" fill="#EEEEEE"/>
<path d="M138.636 159.432H131.704V166.364H138.636V159.432Z" fill="#EEEEEE"/>
<path d="M145.568 159.432H138.636V166.364H145.568V159.432Z" fill="#BDBDBD"/>
<path d="M152.5 159.432H145.568V166.364H152.5V159.432Z" fill="#BDBDBD"/>
<path d="M159.432 159.432H152.5V166.364H159.432V159.432Z" fill="#242424"/>
<path d="M166.364 159.432H159.432V166.364H166.364V159.432Z" fill="#B0120A"/>
<path d="M173.296 159.432H166.364V166.364H173.296V159.432Z" fill="#B0120A"/>
<path d="M180.227 159.432H173.296V166.364H180.227V159.432Z" fill="#D01716"/>
<path d="M187.159 159.432H180.227V166.364H187.159V159.432Z" fill="#D01716"/>
<path d="M194.091 159.432H187.159V166.364H194.091V159.432Z" fill="#D01716"/>
<path d="M201.023 159.432H194.091V166.364H201.023V159.432Z" fill="#242424"/>
<path d="M6.93182 166.364H0V173.295H6.93182V166.364Z" fill="#242424"/>
<path d="M13.8635 166.364H6.93164V173.295H13.8635V166.364Z" fill="#F69988"/>
<path d="M20.7956 166.364H13.8638V173.295H20.7956V166.364Z" fill="#D01716"/>
<path d="M27.7272 166.364H20.7954V173.295H27.7272V166.364Z" fill="#D01716"/>
<path d="M34.6589 166.364H27.7271V173.295H34.6589V166.364Z" fill="#B0120A"/>
<path d="M41.5908 166.364H34.6589V173.295H41.5908V166.364Z" fill="#B0120A"/>
<path d="M48.5226 166.364H41.5908V173.295H48.5226V166.364Z" fill="#B0120A"/>
<path d="M55.4545 166.364H48.5227V173.295H55.4545V166.364Z" fill="#242424"/>
<path d="M62.3864 166.364H55.4546V173.295H62.3864V166.364Z" fill="#EEEEEE"/>
<path d="M69.3183 166.364H62.3865V173.295H69.3183V166.364Z" fill="#EEEEEE"/>
<path d="M76.2502 166.364H69.3184V173.295H76.2502V166.364Z" fill="#EEEEEE"/>
<path d="M83.1816 166.364H76.2498V173.295H83.1816V166.364Z" fill="#EEEEEE"/>
<path d="M90.1137 166.364H83.1819V173.295H90.1137V166.364Z" fill="#EEEEEE"/>
<path d="M97.0453 166.364H90.1135V173.295H97.0453V166.364Z" fill="#EEEEEE"/>
<path d="M103.977 166.364H97.0457V173.295H103.977V166.364Z" fill="#EEEEEE"/>
<path d="M110.909 166.364H103.977V173.295H110.909V166.364Z" fill="#EEEEEE"/>
<path d="M117.841 166.364H110.909V173.295H117.841V166.364Z" fill="#EEEEEE"/>
<path d="M124.773 166.364H117.841V173.295H124.773V166.364Z" fill="#EEEEEE"/>
<path d="M131.705 166.364H124.773V173.295H131.705V166.364Z" fill="#EEEEEE"/>
<path d="M138.636 166.364H131.704V173.295H138.636V166.364Z" fill="#EEEEEE"/>
<path d="M145.568 166.364H138.636V173.295H145.568V166.364Z" fill="#BDBDBD"/>
<path d="M152.5 166.364H145.568V173.295H152.5V166.364Z" fill="#BDBDBD"/>
<path d="M159.432 166.364H152.5V173.295H159.432V166.364Z" fill="#242424"/>
<path d="M166.364 166.364H159.432V173.295H166.364V166.364Z" fill="#B0120A"/>
<path d="M173.296 166.364H166.364V173.295H173.296V166.364Z" fill="#B0120A"/>
<path d="M180.227 166.364H173.296V173.295H180.227V166.364Z" fill="#B0120A"/>
<path d="M187.159 166.364H180.227V173.295H187.159V166.364Z" fill="#D01716"/>
<path d="M194.091 166.364H187.159V173.295H194.091V166.364Z" fill="#D01716"/>
<path d="M201.023 166.364H194.091V173.295H201.023V166.364Z" fill="#D01716"/>
<path d="M207.955 166.364H201.023V173.295H207.955V166.364Z" fill="#242424"/>
<path d="M6.93182 173.295H0V180.227H6.93182V173.295Z" fill="#242424"/>
<path d="M13.8635 173.295H6.93164V180.227H13.8635V173.295Z" fill="#D01716"/>
<path d="M20.7956 173.295H13.8638V180.227H20.7956V173.295Z" fill="#D01716"/>
<path d="M27.7272 173.295H20.7954V180.227H27.7272V173.295Z" fill="#B0120A"/>
<path d="M34.6589 173.295H27.7271V180.227H34.6589V173.295Z" fill="#242424"/>
<path d="M41.5908 173.295H34.6589V180.227H41.5908V173.295Z" fill="#242424"/>
<path d="M48.5226 173.295H41.5908V180.227H48.5226V173.295Z" fill="#242424"/>
<path d="M55.4545 173.295H48.5227V180.227H55.4545V173.295Z" fill="#242424"/>
<path d="M62.3864 173.295H55.4546V180.227H62.3864V173.295Z" fill="#EEEEEE"/>
<path d="M69.3183 173.295H62.3865V180.227H69.3183V173.295Z" fill="#EEEEEE"/>
<path d="M76.2502 173.295H69.3184V180.227H76.2502V173.295Z" fill="#EEEEEE"/>
<path d="M83.1816 173.295H76.2498V180.227H83.1816V173.295Z" fill="#EEEEEE"/>
<path d="M90.1137 173.295H83.1819V180.227H90.1137V173.295Z" fill="#EEEEEE"/>
<path d="M97.0453 173.295H90.1135V180.227H97.0453V173.295Z" fill="#EEEEEE"/>
<path d="M103.977 173.295H97.0457V180.227H103.977V173.295Z" fill="#EEEEEE"/>
<path d="M110.909 173.295H103.977V180.227H110.909V173.295Z" fill="#EEEEEE"/>
<path d="M117.841 173.295H110.909V180.227H117.841V173.295Z" fill="#EEEEEE"/>
<path d="M124.773 173.295H117.841V180.227H124.773V173.295Z" fill="#EEEEEE"/>
<path d="M131.705 173.295H124.773V180.227H131.705V173.295Z" fill="#EEEEEE"/>
<path d="M138.636 173.295H131.704V180.227H138.636V173.295Z" fill="#EEEEEE"/>
<path d="M145.568 173.295H138.636V180.227H145.568V173.295Z" fill="#BDBDBD"/>
<path d="M152.5 173.295H145.568V180.227H152.5V173.295Z" fill="#BDBDBD"/>
<path d="M159.432 173.295H152.5V180.227H159.432V173.295Z" fill="#242424"/>
<path d="M166.364 173.295H159.432V180.227H166.364V173.295Z" fill="#242424"/>
<path d="M173.296 173.295H166.364V180.227H173.296V173.295Z" fill="#242424"/>
<path d="M180.227 173.295H173.296V180.227H180.227V173.295Z" fill="#242424"/>
<path d="M187.159 173.295H180.227V180.227H187.159V173.295Z" fill="#B0120A"/>
<path d="M194.091 173.295H187.159V180.227H194.091V173.295Z" fill="#D01716"/>
<path d="M201.023 173.295H194.091V180.227H201.023V173.295Z" fill="#D01716"/>
<path d="M207.955 173.295H201.023V180.227H207.955V173.295Z" fill="#242424"/>
<path d="M6.93182 180.227H0V187.159H6.93182V180.227Z" fill="#242424"/>
<path d="M13.8635 180.227H6.93164V187.159H13.8635V180.227Z" fill="#D01716"/>
<path d="M20.7956 180.227H13.8638V187.159H20.7956V180.227Z" fill="#B0120A"/>
<path d="M27.7272 180.227H20.7954V187.159H27.7272V180.227Z" fill="#242424"/>
<path d="M62.3864 180.227H55.4546V187.159H62.3864V180.227Z" fill="#242424"/>
<path d="M69.3183 180.227H62.3865V187.159H69.3183V180.227Z" fill="#BDBDBD"/>
<path d="M76.2502 180.227H69.3184V187.159H76.2502V180.227Z" fill="#BDBDBD"/>
<path d="M83.1816 180.227H76.2498V187.159H83.1816V180.227Z" fill="#BDBDBD"/>
<path d="M90.1137 180.227H83.1819V187.159H90.1137V180.227Z" fill="#BDBDBD"/>
<path d="M97.0453 180.227H90.1135V187.159H97.0453V180.227Z" fill="#BDBDBD"/>
<path d="M103.977 180.227H97.0457V187.159H103.977V180.227Z" fill="#BDBDBD"/>
<path d="M110.909 180.227H103.977V187.159H110.909V180.227Z" fill="#BDBDBD"/>
<path d="M117.841 180.227H110.909V187.159H117.841V180.227Z" fill="#BDBDBD"/>
<path d="M124.773 180.227H117.841V187.159H124.773V180.227Z" fill="#BDBDBD"/>
<path d="M131.705 180.227H124.773V187.159H131.705V180.227Z" fill="#BDBDBD"/>
<path d="M138.636 180.227H131.704V187.159H138.636V180.227Z" fill="#BDBDBD"/>
<path d="M145.568 180.227H138.636V187.159H145.568V180.227Z" fill="#BDBDBD"/>
<path d="M152.5 180.227H145.568V187.159H152.5V180.227Z" fill="#242424"/>
<path d="M187.159 180.227H180.227V187.159H187.159V180.227Z" fill="#242424"/>
<path d="M194.091 180.227H187.159V187.159H194.091V180.227Z" fill="#B0120A"/>
<path d="M201.023 180.227H194.091V187.159H201.023V180.227Z" fill="#D01716"/>
<path d="M207.955 180.227H201.023V187.159H207.955V180.227Z" fill="#242424"/>
<path d="M6.93182 187.159H0V194.091H6.93182V187.159Z" fill="#242424"/>
<path d="M13.8635 187.159H6.93164V194.091H13.8635V187.159Z" fill="#D01716"/>
<path d="M20.7956 187.159H13.8638V194.091H20.7956V187.159Z" fill="#B0120A"/>
<path d="M27.7272 187.159H20.7954V194.091H27.7272V187.159Z" fill="#242424"/>
<path d="M69.3183 187.159H62.3865V194.091H69.3183V187.159Z" fill="#242424"/>
<path d="M76.2502 187.159H69.3184V194.091H76.2502V187.159Z" fill="#242424"/>
<path d="M83.1816 187.159H76.2498V194.091H83.1816V187.159Z" fill="#242424"/>
<path d="M90.1137 187.159H83.1819V194.091H90.1137V187.159Z" fill="#242424"/>
<path d="M97.0453 187.159H90.1135V194.091H97.0453V187.159Z" fill="#242424"/>
<path d="M103.977 187.159H97.0457V194.091H103.977V187.159Z" fill="#242424"/>
<path d="M110.909 187.159H103.977V194.091H110.909V187.159Z" fill="#242424"/>
<path d="M117.841 187.159H110.909V194.091H117.841V187.159Z" fill="#242424"/>
<path d="M124.773 187.159H117.841V194.091H124.773V187.159Z" fill="#242424"/>
<path d="M131.705 187.159H124.773V194.091H131.705V187.159Z" fill="#242424"/>
<path d="M138.636 187.159H131.704V194.091H138.636V187.159Z" fill="#242424"/>
<path d="M145.568 187.159H138.636V194.091H145.568V187.159Z" fill="#242424"/>
<path d="M187.159 187.159H180.227V194.091H187.159V187.159Z" fill="#242424"/>
<path d="M194.091 187.159H187.159V194.091H194.091V187.159Z" fill="#B0120A"/>
<path d="M201.023 187.159H194.091V194.091H201.023V187.159Z" fill="#B0120A"/>
<path d="M207.955 187.159H201.023V194.091H207.955V187.159Z" fill="#242424"/>
<path d="M6.93182 194.091H0V201.023H6.93182V194.091Z" fill="#242424"/>
<path d="M13.8635 194.091H6.93164V201.023H13.8635V194.091Z" fill="#B0120A"/>
<path d="M20.7956 194.091H13.8638V201.023H20.7956V194.091Z" fill="#242424"/>
<path d="M69.3183 194.091H62.3865V201.023H69.3183V194.091Z" fill="#242424"/>
<path d="M76.2502 194.091H69.3184V201.023H76.2502V194.091Z" fill="#B0120A"/>
<path d="M83.1816 194.091H76.2498V201.023H83.1816V194.091Z" fill="#B0120A"/>
<path d="M90.1137 194.091H83.1819V201.023H90.1137V194.091Z" fill="#B0120A"/>
<path d="M97.0453 194.091H90.1135V201.023H97.0453V194.091Z" fill="#B0120A"/>
<path d="M103.977 194.091H97.0457V201.023H103.977V194.091Z" fill="#B0120A"/>
<path d="M110.909 194.091H103.977V201.023H110.909V194.091Z" fill="#B0120A"/>
<path d="M117.841 194.091H110.909V201.023H117.841V194.091Z" fill="#B0120A"/>
<path d="M124.773 194.091H117.841V201.023H124.773V194.091Z" fill="#B0120A"/>
<path d="M131.705 194.091H124.773V201.023H131.705V194.091Z" fill="#B0120A"/>
<path d="M138.636 194.091H131.704V201.023H138.636V194.091Z" fill="#B0120A"/>
<path d="M145.568 194.091H138.636V201.023H145.568V194.091Z" fill="#242424"/>
<path d="M194.091 194.091H187.159V201.023H194.091V194.091Z" fill="#242424"/>
<path d="M201.023 194.091H194.091V201.023H201.023V194.091Z" fill="#B0120A"/>
<path d="M207.955 194.091H201.023V201.023H207.955V194.091Z" fill="#242424"/>
<path d="M13.8635 201.023H6.93164V207.955H13.8635V201.023Z" fill="#242424"/>
<path d="M62.3864 201.023H55.4546V207.955H62.3864V201.023Z" fill="#242424"/>
<path d="M69.3183 201.023H62.3865V207.955H69.3183V201.023Z" fill="#D01716"/>
<path d="M76.2502 201.023H69.3184V207.955H76.2502V201.023Z" fill="#D01716"/>
<path d="M83.1816 201.023H76.2498V207.955H83.1816V201.023Z" fill="#D01716"/>
<path d="M90.1137 201.023H83.1819V207.955H90.1137V201.023Z" fill="#D01716"/>
<path d="M97.0453 201.023H90.1135V207.955H97.0453V201.023Z" fill="#D01716"/>
<path d="M103.977 201.023H97.0457V207.955H103.977V201.023Z" fill="#D01716"/>
<path d="M110.909 201.023H103.977V207.955H110.909V201.023Z" fill="#D01716"/>
<path d="M117.841 201.023H110.909V207.955H117.841V201.023Z" fill="#D01716"/>
<path d="M124.773 201.023H117.841V207.955H124.773V201.023Z" fill="#D01716"/>
<path d="M131.705 201.023H124.773V207.955H131.705V201.023Z" fill="#D01716"/>
<path d="M138.636 201.023H131.704V207.955H138.636V201.023Z" fill="#D01716"/>
<path d="M145.568 201.023H138.636V207.955H145.568V201.023Z" fill="#D01716"/>
<path d="M152.5 201.023H145.568V207.955H152.5V201.023Z" fill="#242424"/>
<path d="M201.023 201.023H194.091V207.955H201.023V201.023Z" fill="#242424"/>
<path d="M69.3183 207.955H62.3865V214.886H69.3183V207.955Z" fill="#242424"/>
<path d="M76.2502 207.955H69.3184V214.886H76.2502V207.955Z" fill="#D01716"/>
<path d="M83.1816 207.955H76.2498V214.886H83.1816V207.955Z" fill="#D01716"/>
<path d="M90.1137 207.955H83.1819V214.886H90.1137V207.955Z" fill="#D01716"/>
<path d="M97.0453 207.955H90.1135V214.886H97.0453V207.955Z" fill="#D01716"/>
<path d="M103.977 207.955H97.0457V214.886H103.977V207.955Z" fill="#D01716"/>
<path d="M110.909 207.955H103.977V214.886H110.909V207.955Z" fill="#D01716"/>
<path d="M117.841 207.955H110.909V214.886H117.841V207.955Z" fill="#D01716"/>
<path d="M124.773 207.955H117.841V214.886H124.773V207.955Z" fill="#D01716"/>
<path d="M131.705 207.955H124.773V214.886H131.705V207.955Z" fill="#D01716"/>
<path d="M138.636 207.955H131.704V214.886H138.636V207.955Z" fill="#D01716"/>
<path d="M145.568 207.955H138.636V214.886H145.568V207.955Z" fill="#242424"/>
<path d="M76.2502 214.886H69.3184V221.818H76.2502V214.886Z" fill="#242424"/>
<path d="M83.1816 214.886H76.2498V221.818H83.1816V214.886Z" fill="#B0120A"/>
<path d="M90.1137 214.886H83.1819V221.818H90.1137V214.886Z" fill="#B0120A"/>
<path d="M97.0453 214.886H90.1135V221.818H97.0453V214.886Z" fill="#B0120A"/>
<path d="M103.977 214.886H97.0457V221.818H103.977V214.886Z" fill="#B0120A"/>
<path d="M110.909 214.886H103.977V221.818H110.909V214.886Z" fill="#B0120A"/>
<path d="M117.841 214.886H110.909V221.818H117.841V214.886Z" fill="#B0120A"/>
<path d="M124.773 214.886H117.841V221.818H124.773V214.886Z" fill="#B0120A"/>
<path d="M131.705 214.886H124.773V221.818H131.705V214.886Z" fill="#B0120A"/>
<path d="M138.636 214.886H131.704V221.818H138.636V214.886Z" fill="#242424"/>
<path d="M69.3183 221.818H62.3865V228.75H69.3183V221.818Z" fill="#242424"/>
<path d="M76.2502 221.818H69.3184V228.75H76.2502V221.818Z" fill="#D01716"/>
<path d="M83.1816 221.818H76.2498V228.75H83.1816V221.818Z" fill="#D01716"/>
<path d="M90.1137 221.818H83.1819V228.75H90.1137V221.818Z" fill="#D01716"/>
<path d="M97.0453 221.818H90.1135V228.75H97.0453V221.818Z" fill="#D01716"/>
<path d="M103.977 221.818H97.0457V228.75H103.977V221.818Z" fill="#D01716"/>
<path d="M110.909 221.818H103.977V228.75H110.909V221.818Z" fill="#D01716"/>
<path d="M117.841 221.818H110.909V228.75H117.841V221.818Z" fill="#D01716"/>
<path d="M124.773 221.818H117.841V228.75H124.773V221.818Z" fill="#D01716"/>
<path d="M131.705 221.818H124.773V228.75H131.705V221.818Z" fill="#D01716"/>
<path d="M138.636 221.818H131.704V228.75H138.636V221.818Z" fill="#D01716"/>
<path d="M145.568 221.818H138.636V228.75H145.568V221.818Z" fill="#242424"/>
<path d="M76.2502 228.75H69.3184V235.682H76.2502V228.75Z" fill="#242424"/>
<path d="M83.1816 228.75H76.2498V235.682H83.1816V228.75Z" fill="#242424"/>
<path d="M90.1137 228.75H83.1819V235.682H90.1137V228.75Z" fill="#242424"/>
<path d="M97.0453 228.75H90.1135V235.682H97.0453V228.75Z" fill="#242424"/>
<path d="M103.977 228.75H97.0457V235.682H103.977V228.75Z" fill="#242424"/>
<path d="M110.909 228.75H103.977V235.682H110.909V228.75Z" fill="#242424"/>
<path d="M117.841 228.75H110.909V235.682H117.841V228.75Z" fill="#242424"/>
<path d="M124.773 228.75H117.841V235.682H124.773V228.75Z" fill="#242424"/>
<path d="M131.705 228.75H124.773V235.682H131.705V228.75Z" fill="#242424"/>
<path d="M138.636 228.75H131.704V235.682H138.636V228.75Z" fill="#242424"/>
<path d="M83.1816 235.682H76.2498V242.614H83.1816V235.682Z" fill="#E65100"/>
<path d="M90.1137 235.682H83.1819V242.614H90.1137V235.682Z" fill="#FB8C00"/>
<path d="M97.0453 235.682H90.1135V242.614H97.0453V235.682Z" fill="#FFD54F"/>
<path d="M103.977 235.682H97.0457V242.614H103.977V235.682Z" fill="#FFD54F"/>
<path d="M110.909 235.682H103.977V242.614H110.909V235.682Z" fill="#FFD54F"/>
<path d="M117.841 235.682H110.909V242.614H117.841V235.682Z" fill="#FFD54F"/>
<path d="M124.773 235.682H117.841V242.614H124.773V235.682Z" fill="#FB8C00"/>
<path d="M131.705 235.682H124.773V242.614H131.705V235.682Z" fill="#E65100"/>
<path d="M76.2502 242.614H69.3184V249.545H76.2502V242.614Z" fill="#E65100"/>
<path d="M83.1816 242.614H76.2498V249.545H83.1816V242.614Z" fill="#FB8C00"/>
<path d="M90.1137 242.614H83.1819V249.545H90.1137V242.614Z" fill="#FFD54F"/>
<path d="M97.0453 242.614H90.1135V249.545H97.0453V242.614Z" fill="#FFD54F"/>
<path d="M103.977 242.614H97.0457V249.545H103.977V242.614Z" fill="#FFD54F"/>
<path d="M110.909 242.614H103.977V249.545H110.909V242.614Z" fill="#FFD54F"/>
<path d="M117.841 242.614H110.909V249.545H117.841V242.614Z" fill="#FFD54F"/>
<path d="M124.773 242.614H117.841V249.545H124.773V242.614Z" fill="#FFD54F"/>
<path d="M131.705 242.614H124.773V249.545H131.705V242.614Z" fill="#FB8C00"/>
<path d="M138.636 242.614H131.704V249.545H138.636V242.614Z" fill="#E65100"/>
<path d="M76.2502 249.545H69.3184V256.477H76.2502V249.545Z" fill="#E65100"/>
<path d="M83.1816 249.545H76.2498V256.477H83.1816V249.545Z" fill="#FB8C00"/>
<path d="M90.1137 249.545H83.1819V256.477H90.1137V249.545Z" fill="#FFD54F"/>
<path d="M97.0453 249.545H90.1135V256.477H97.0453V249.545Z" fill="#FFD54F"/>
<path d="M103.977 249.545H97.0457V256.477H103.977V249.545Z" fill="#FFD54F"/>
<path d="M110.909 249.545H103.977V256.477H110.909V249.545Z" fill="#FFD54F"/>
<path d="M117.841 249.545H110.909V256.477H117.841V249.545Z" fill="#FFD54F"/>
<path d="M124.773 249.545H117.841V256.477H124.773V249.545Z" fill="#FFD54F"/>
<path d="M131.705 249.545H124.773V256.477H131.705V249.545Z" fill="#FB8C00"/>
<path d="M138.636 249.545H131.704V256.477H138.636V249.545Z" fill="#E65100"/>
<path d="M76.2502 256.477H69.3184V263.409H76.2502V256.477Z" fill="#E65100"/>
<path d="M83.1816 256.477H76.2498V263.409H83.1816V256.477Z" fill="#FB8C00"/>
<path d="M90.1137 256.477H83.1819V263.409H90.1137V256.477Z" fill="#FFD54F"/>
<path d="M97.0453 256.477H90.1135V263.409H97.0453V256.477Z" fill="#FFD54F"/>
<path d="M103.977 256.477H97.0457V263.409H103.977V256.477Z" fill="#FFD54F"/>
<path d="M110.909 256.477H103.977V263.409H110.909V256.477Z" fill="#FFD54F"/>
<path d="M117.841 256.477H110.909V263.409H117.841V256.477Z" fill="#FFD54F"/>
<path d="M124.773 256.477H117.841V263.409H124.773V256.477Z" fill="#FFD54F"/>
<path d="M131.705 256.477H124.773V263.409H131.705V256.477Z" fill="#FB8C00"/>
<path d="M138.636 256.477H131.704V263.409H138.636V256.477Z" fill="#E65100"/>
<path d="M76.2502 263.409H69.3184V270.341H76.2502V263.409Z" fill="#E65100"/>
<path d="M83.1816 263.409H76.2498V270.341H83.1816V263.409Z" fill="#FB8C00"/>
<path d="M90.1137 263.409H83.1819V270.341H90.1137V263.409Z" fill="#FFD54F"/>
<path d="M97.0453 263.409H90.1135V270.341H97.0453V263.409Z" fill="#FFD54F"/>
<path d="M103.977 263.409H97.0457V270.341H103.977V263.409Z" fill="#FFD54F"/>
<path d="M110.909 263.409H103.977V270.341H110.909V263.409Z" fill="#FFD54F"/>
<path d="M117.841 263.409H110.909V270.341H117.841V263.409Z" fill="#FFD54F"/>
<path d="M124.773 263.409H117.841V270.341H124.773V263.409Z" fill="#FFD54F"/>
<path d="M131.705 263.409H124.773V270.341H131.705V263.409Z" fill="#FB8C00"/>
<path d="M138.636 263.409H131.704V270.341H138.636V263.409Z" fill="#E65100"/>
<path d="M83.1816 270.341H76.2498V277.273H83.1816V270.341Z" fill="#E65100"/>
<path d="M90.1137 270.341H83.1819V277.273H90.1137V270.341Z" fill="#FB8C00"/>
<path d="M97.0453 270.341H90.1135V277.273H97.0453V270.341Z" fill="#FFD54F"/>
<path d="M103.977 270.341H97.0457V277.273H103.977V270.341Z" fill="#FFD54F"/>
<path d="M110.909 270.341H103.977V277.273H110.909V270.341Z" fill="#FFD54F"/>
<path d="M117.841 270.341H110.909V277.273H117.841V270.341Z" fill="#FFD54F"/>
<path d="M124.773 270.341H117.841V277.273H124.773V270.341Z" fill="#FB8C00"/>
<path d="M131.705 270.341H124.773V277.273H131.705V270.341Z" fill="#E65100"/>
<path d="M83.1816 277.273H76.2498V284.205H83.1816V277.273Z" fill="#E65100"/>
<path d="M90.1137 277.273H83.1819V284.205H90.1137V277.273Z" fill="#FB8C00"/>
<path d="M97.0453 277.273H90.1135V284.205H97.0453V277.273Z" fill="#FFD54F"/>
<path d="M103.977 277.273H97.0457V284.205H103.977V277.273Z" fill="#FFD54F"/>
<path d="M110.909 277.273H103.977V284.205H110.909V277.273Z" fill="#FFD54F"/>
<path d="M117.841 277.273H110.909V284.205H117.841V277.273Z" fill="#FFD54F"/>
<path d="M124.773 277.273H117.841V284.205H124.773V277.273Z" fill="#FB8C00"/>
<path d="M131.705 277.273H124.773V284.205H131.705V277.273Z" fill="#E65100"/>
<path d="M90.1137 284.205H83.1819V291.136H90.1137V284.205Z" fill="#E65100"/>
<path d="M97.0453 284.205H90.1135V291.136H97.0453V284.205Z" fill="#EF6C00"/>
<path d="M103.977 284.205H97.0457V291.136H103.977V284.205Z" fill="#FFD54F"/>
<path d="M110.909 284.205H103.977V291.136H110.909V284.205Z" fill="#FFD54F"/>
<path d="M117.841 284.205H110.909V291.136H117.841V284.205Z" fill="#EF6C00"/>
<path d="M124.773 284.205H117.841V291.136H124.773V284.205Z" fill="#E65100"/>
<path d="M97.0453 291.136H90.1135V298.068H97.0453V291.136Z" fill="#E65100"/>
<path d="M103.977 291.136H97.0457V298.068H103.977V291.136Z" fill="#EF6C00"/>
<path d="M110.909 291.136H103.977V298.068H110.909V291.136Z" fill="#EF6C00"/>
<path d="M117.841 291.136H110.909V298.068H117.841V291.136Z" fill="#E65100"/>
<path d="M103.977 298.068H97.0457V305H103.977V298.068Z" fill="#E65100"/>
<path d="M110.909 298.068H103.977V305H110.909V298.068Z" fill="#E65100"/>
</svg>
