<svg width="234" height="119" viewBox="0 0 234 119" fill="none" xmlns="http://www.w3.org/2000/svg">
<path d="M214.836 111.075V107.113H210.201V103.151H205.522V99.1887V95.2264H200.843V91.2642V87.3019V83.2956V79.3333V75.3711V71.4088V67.4465H196.164V71.4088H191.485V75.3711H186.85H182.171H177.492H172.813H168.134H163.455V71.4088H158.82V67.4465H154.141V63.4843H149.462V67.4465H144.783V71.4088V75.3711H140.104V79.3333H135.47V83.2956H130.791V87.3019H126.112H121.433V91.2642H116.754H112.075H107.44H102.761H98.0819H93.4029H88.7239H84.0891V87.3019H79.4101H74.7312V83.2956H70.0522V79.3333H65.3732V75.3711H60.7384H56.0594V79.3333H51.3804V83.2956H46.7015H42.0225H37.3876H32.7087H28.0297H23.3507V79.3333H18.6718V75.3711H13.9928V71.4088V67.4465H9.35795V63.4843V59.522V55.5598V51.5535H4.67897V55.5598V59.522V63.4843H0V67.4465V71.4088V75.3711V79.3333V83.2956V87.3019H4.67897V91.2642V95.2264V99.1887H9.35795V103.151V107.113H13.9928V111.075H18.6718V115.038H23.3507H28.0297V119H32.7087H37.3876H42.0225H46.7015H51.3804H56.0594H60.7384H65.3732H70.0522H74.7312H79.4101H84.0891H88.7239H93.4029H98.0819H102.761H107.44H112.075H116.754H121.433H126.112H130.791H135.47H140.104H144.783H149.462H154.141H158.82H163.455H168.134H172.813H177.492H182.171H186.85H191.485H196.164H200.843H205.522H210.201H214.836V115.038H219.514V111.075H214.836Z" fill="#C1E5F5"/>
<path d="M228.872 75.3711V71.4088V67.4465H224.193V63.4843H219.514V59.522H214.835V55.5597H210.201H205.522H200.843V51.5535V47.5912V43.6289H196.164V39.6667V35.7044V31.7421H191.485V27.7799H186.85V23.8176H182.171V19.8553H177.492V15.8491H172.813H168.134H163.455H158.82H154.141H149.462H144.783H140.104V19.8553H135.469V15.8491V11.8868H130.791V7.92453H126.112H121.433V3.96226H116.754V0H112.075H107.44H102.761H98.0818H93.4029H88.7239V3.96226H84.0891H79.4101V7.92453H74.7311V11.8868H70.0521V15.8491H65.3732V19.8553H60.7383V23.8176V27.7799V31.7421H56.0594H51.3804H46.7014H42.0224H37.3876H32.7086H28.0297V35.7044H23.3507H18.6717V39.6667H13.9927V43.6289H9.35791V47.5912V51.5535V55.5597V59.522V63.4843V67.4465H13.9927V71.4088V75.3711H18.6717V79.3333H23.3507V83.2956H28.0297H32.7086H37.3876H42.0224H46.7014H51.3804V79.3333H56.0594V75.3711H60.7383H65.3732V79.3333H70.0521V83.2956H74.7311V87.3019H79.4101H84.0891V91.2642H88.7239H93.4029H98.0818H102.761H107.44H112.075H116.754H121.433V87.3019H126.112H130.791V83.2956H135.469V79.3333H140.104V75.3711H144.783V71.4088V67.4465H149.462V63.4843H154.141V67.4465H158.82V71.4088H163.455V75.3711H168.134H172.813H177.492H182.171H186.85H191.485V71.4088H196.164V67.4465H200.843V71.4088V75.3711V79.3333V83.2956V87.3019V91.2642V95.2264H205.522V99.1887V103.151H210.201V107.113H214.835V111.075H219.514V115.038H224.193V111.075V107.113H228.872V103.151H233.551V99.1887V95.2264V91.2642V87.3019V83.2956V79.3333V75.3711H228.872Z" fill="white"/>
</svg>
