<svg width="1920" height="800" viewBox="0 0 1920 800" fill="none" xmlns="http://www.w3.org/2000/svg">
<path d="M960 -31H-137V831H960V-31Z" fill="#F3A87B"/>
<path d="M953.585 255.538V221.647H929.025V243.844H889.252V277.735H854.154V221.647H826.065V254.346H787.438V221.647H760.541V252.007H727.779V221.647H689.152V235.681H635.358V221.647H602.596V262.555H570.98V221.647H546.42V243.844H500.782V270.718H457.481V233.342H428.248V253.2H402.496V229.81H366.252V257.877H312.412V221.647H269.111V239.166H232.821V221.647H200.105V238.02H150.939V267.187H119.368V221.647H91.2801V246.183H51.4617V221.647H31.5754V236.827H-29.2749V274.204H-57.3173V221.647H-99.4726V242.697H-137V640.586H960V255.538H953.585Z" fill="#F9BD7A"/>
<path d="M953.585 531.666V504.058H929.025V522.173H889.252V549.781H854.154V504.058H826.065V530.703H787.438V504.058H760.541V528.823H727.779V504.058H689.152V515.478H635.358V504.058H602.596V537.399H570.98V504.058H546.42V522.173H500.782V544.049H457.481V513.597H428.248V529.786H402.496V510.708H366.252V533.593H312.412V504.058H269.111V518.367H232.821V504.058H200.105V517.404H150.939V541.205H119.368V504.058H91.2801V524.054H51.4617V504.058H31.5754V516.441H-29.2749V546.938H-57.3173V504.058H-99.4726V521.21H-137V831H960V531.666H953.585Z" fill="#F8D499"/>
<path d="M2057 -31H960V831H2057V-31Z" fill="#F3A87B"/>
<path d="M2050.59 255.538V221.647H2026.03V243.844H1986.25V277.735H1951.15V221.647H1923.07V254.346H1884.44V221.647H1857.54V252.007H1824.78V221.647H1786.15V235.681H1732.36V221.647H1699.6V262.555H1667.98V221.647H1643.42V243.844H1597.78V270.718H1554.48V233.342H1525.25V253.2H1499.5V229.81H1463.25V257.877H1409.41V221.647H1366.11V239.166H1329.82V221.647H1297.1V238.02H1247.94V267.187H1216.37V221.647H1188.28V246.183H1148.46V221.647H1128.58V236.827H1067.73V274.204H1039.68V221.647H997.527V242.697H960V640.586H2057V255.538H2050.59Z" fill="#F9BD7A"/>
<path d="M2050.59 531.666V504.058H2026.03V522.173H1986.25V549.781H1951.15V504.058H1923.07V530.703H1884.44V504.058H1857.54V528.823H1824.78V504.058H1786.15V515.478H1732.36V504.058H1699.6V537.399H1667.98V504.058H1643.42V522.173H1597.78V544.049H1554.48V513.597H1525.25V529.786H1499.5V510.708H1463.25V533.593H1409.41V504.058H1366.11V518.367H1329.82V504.058H1297.1V517.404H1247.94V541.205H1216.37V504.058H1188.28V524.054H1148.46V504.058H1128.58V516.441H1067.73V546.938H1039.68V504.058H997.527V521.21H960V831H2057V531.666H2050.59Z" fill="#F8D499"/>
<path d="M211.751 695.329V693.213H209.275V691.096H206.776V688.98V686.864H204.277V684.747V682.631V680.491V678.375V676.258V674.142V672.025H201.778V674.142H199.278V676.258H196.803H194.304H191.804H189.305H186.806H184.307V674.142H181.831V672.025H179.332V669.909H176.833V672.025H174.334V674.142V676.258H171.834V678.375H169.359V680.491H166.86V682.631H164.36H161.861V684.747H159.362H156.863H154.387H151.888H149.389H146.89H144.39H141.915V682.631H139.416H136.916V680.491H134.417V678.375H131.918V676.258H129.442H126.943V678.375H124.444V680.491H121.945H119.446H116.97H114.471H111.972H109.472V678.375H106.973V676.258H104.474V674.142V672.025H101.998V669.909V667.793V665.676V663.536H99.4992V665.676V667.793V669.909H97V672.025V674.142V676.258V678.375V680.491V682.631H99.4992V684.747V686.864V688.98H101.998V691.096V693.213H104.474V695.329H106.973V697.446H109.472H111.972V699.562H114.471H116.97H119.446H121.945H124.444H126.943H129.442H131.918H134.417H136.916H139.416H141.915H144.39H146.89H149.389H151.888H154.387H156.863H159.362H161.861H164.36H166.86H169.359H171.834H174.334H176.833H179.332H181.831H184.307H186.806H189.305H191.804H194.304H196.803H199.278H201.778H204.277H206.776H209.275H211.751V697.446H214.25V695.329H211.751Z" fill="#C1E5F5"/>
<path d="M219.248 676.258V674.142V672.025H216.749V669.909H214.25V667.793H211.751V665.676H209.275H206.776H204.277V663.536V661.42V659.304H201.778V657.187V655.071V652.955H199.278V650.838H196.803V648.722H194.304V646.605H191.804V644.466H189.305H186.806H184.307H181.831H179.332H176.833H174.334H171.834V646.605H169.359V644.466V642.349H166.859V640.233H164.36H161.861V638.116H159.362V636H156.863H154.387H151.888H149.389H146.89H144.39V638.116H141.915H139.416V640.233H136.916V642.349H134.417V644.466H131.918V646.605H129.442V648.722V650.838V652.955H126.943H124.444H121.945H119.446H116.97H114.471H111.971V655.071H109.472H106.973V657.187H104.474V659.304H101.998V661.42V663.536V665.676V667.793V669.909V672.025H104.474V674.142V676.258H106.973V678.375H109.472V680.491H111.971H114.471H116.97H119.446H121.945H124.444V678.375H126.943V676.258H129.442H131.918V678.375H134.417V680.491H136.916V682.631H139.416H141.915V684.747H144.39H146.89H149.389H151.888H154.387H156.863H159.362H161.861V682.631H164.36H166.859V680.491H169.359V678.375H171.834V676.258H174.334V674.142V672.025H176.833V669.909H179.332V672.025H181.831V674.142H184.307V676.258H186.806H189.305H191.804H194.304H196.803H199.278V674.142H201.778V672.025H204.277V674.142V676.258V678.375V680.491V682.631V684.747V686.864H206.776V688.98V691.096H209.275V693.213H211.751V695.329H214.25V697.445H216.749V695.329V693.213H219.248V691.096H221.747V688.98V686.864V684.747V682.631V680.491V678.375V676.258H219.248Z" fill="white"/>
</svg>
