<svg width="53" height="53" viewBox="0 0 53 53" fill="none" xmlns="http://www.w3.org/2000/svg">
<rect width="52.2569" height="52.2569" rx="26.1284" fill="#D9FBF4"/>
<g clip-path="url(#clip0_366_1660)">
<path d="M39.1924 23.0175H37.9431V29.2393H39.1924V23.0175Z" fill="#214D59"/>
<path d="M36.7022 15.5546V13.0642H35.4611V14.3053H34.2118V15.5546H32.9707V19.286H36.7022V18.0449H37.9433V16.7957H39.1925V15.5546H36.7022Z" fill="#214D59"/>
<path d="M37.9435 29.2394H36.7024V31.7298H37.9435V29.2394Z" fill="#214D59"/>
<path d="M37.9435 20.5273H36.7024V23.0177H37.9435V20.5273Z" fill="#214D59"/>
<path d="M36.7023 31.7296H35.4612V34.22H36.7023V31.7296Z" fill="#214D59"/>
<path d="M35.4612 34.22H34.2119V35.4611H35.4612V34.22Z" fill="#214D59"/>
<path d="M34.2122 35.4613H31.73V36.7024H34.2122V35.4613Z" fill="#214D59"/>
<path d="M32.9711 19.2859H31.73V20.527H32.9711V19.2859Z" fill="#214D59"/>
<path d="M31.7297 20.5273H30.4805V21.7766H31.7297V20.5273Z" fill="#214D59"/>
<path d="M31.7299 36.7022H29.2395V37.9515H31.7299V36.7022Z" fill="#214D59"/>
<path d="M30.4806 24.2668H29.2395V27.9983H30.4806V24.2668Z" fill="#214D59"/>
<path d="M30.4806 21.7766H29.2395V23.0177H30.4806V21.7766Z" fill="#214D59"/>
<path d="M31.7299 14.3053H29.2395V15.5546H31.7299V14.3053Z" fill="#214D59"/>
<path d="M29.2397 27.9983H27.9905V29.2394H29.2397V27.9983Z" fill="#214D59"/>
<path d="M29.2397 23.0175H27.9905V24.2667H29.2397V23.0175Z" fill="#214D59"/>
<path d="M29.2394 37.9516H23.0176V39.1927H29.2394V37.9516Z" fill="#214D59"/>
<path d="M27.9901 24.2668H26.749V25.5079H27.9901V24.2668Z" fill="#214D59"/>
<path d="M27.99 29.2394H24.2585V30.4805H27.99V29.2394Z" fill="#214D59"/>
<path d="M26.7487 25.5079H25.5076V26.749H26.7487V25.5079Z" fill="#214D59"/>
<path d="M27.99 21.7766H24.2585V23.0177H27.99V21.7766Z" fill="#214D59"/>
<path d="M29.2394 13.0642H23.0176V14.3053H29.2394V13.0642Z" fill="#214D59"/>
<path d="M24.2587 27.9983H23.0176V29.2394H24.2587V27.9983Z" fill="#214D59"/>
<path d="M24.2587 23.0175H23.0176V24.2667H24.2587V23.0175Z" fill="#214D59"/>
<path d="M23.0173 36.7022H20.527V37.9515H23.0173V36.7022Z" fill="#214D59"/>
<path d="M23.0172 24.2668H21.7679V27.9983H23.0172V24.2668Z" fill="#214D59"/>
<path d="M23.0173 14.3053H20.527V15.5546H23.0173V14.3053Z" fill="#214D59"/>
<path d="M20.5274 35.4613H18.037V36.7024H20.5274V35.4613Z" fill="#214D59"/>
<path d="M20.5274 15.5547H18.037V16.7958H20.5274V15.5547Z" fill="#214D59"/>
<path d="M19.2858 23.0175H20.5269V20.5271H23.0172V19.286H30.4802V18.0449H29.2391V16.7956H23.0172V18.0449H20.5269V19.286H19.2858V20.5271H18.0365V23.0175H16.7954V29.2393H18.0365V31.7297H19.2858V32.9708H20.5269V34.22H23.0172V35.4611H29.2391V34.22H31.7294V32.9708H32.9705V31.7297H34.2117V29.2393H35.4609V23.0175H34.2117V21.7764H32.9705V29.2393H31.7294V31.7297H30.4802V32.9708H23.0172V31.7297H20.5269V29.2393H19.2858V23.0175Z" fill="#214D59"/>
<path d="M18.0365 34.22H16.7954V35.4611H18.0365V34.22Z" fill="#214D59"/>
<path d="M18.0365 16.7956H16.7954V18.0449H18.0365V16.7956Z" fill="#214D59"/>
<path d="M16.7955 31.7296H15.5544V34.22H16.7955V31.7296Z" fill="#214D59"/>
<path d="M16.7955 18.0451H15.5544V20.5273H16.7955V18.0451Z" fill="#214D59"/>
<path d="M15.5547 29.2394H14.3054V31.7298H15.5547V29.2394Z" fill="#214D59"/>
<path d="M15.5547 20.5273H14.3054V23.0177H15.5547V20.5273Z" fill="#214D59"/>
<path d="M14.3053 23.0175H13.0642V29.2393H14.3053V23.0175Z" fill="#214D59"/>
</g>
<defs>
<clipPath id="clip0_366_1660">
<rect width="26.1284" height="26.1284" fill="white" transform="translate(13.0641 13.0642)"/>
</clipPath>
</defs>
</svg>
