<svg width="171" height="87" viewBox="0 0 171 87" fill="none" xmlns="http://www.w3.org/2000/svg">
<path d="M157.065 81.2064V78.3097H153.676V75.4129H150.255V72.5161V69.6193H146.835V66.7225V63.8257V60.8968V58V55.1032V52.2064V49.3096H143.414V52.2064H139.993V55.1032H136.605H133.184H129.763H126.342H122.922H119.501V52.2064H116.112V49.3096H112.692V46.4129H109.271V49.3096H105.85V52.2064V55.1032H102.429V58H99.0407V60.8968H95.62V63.8257H92.1992H88.7785V66.7225H85.3577H81.9369H78.5484H75.1277H71.7069H68.2862H64.8654H61.4769V63.8257H58.0561H54.6354V60.8968H51.2146V58H47.7939V55.1032H44.4054H40.9846V58H37.5638V60.8968H34.1431H30.7223H27.3338H23.9131H20.4923H17.0715V58H13.6508V55.1032H10.23V52.2064V49.3096H6.84153V46.4129V43.5161V40.6193V37.6903H3.42076V40.6193V43.5161V46.4129H0V49.3096V52.2064V55.1032V58V60.8968V63.8257H3.42076V66.7225V69.6193V72.5161H6.84153V75.4129V78.3097H10.23V81.2064H13.6508V84.1032H17.0715H20.4923V87H23.9131H27.3338H30.7223H34.1431H37.5638H40.9846H44.4054H47.7939H51.2146H54.6354H58.0561H61.4769H64.8654H68.2862H71.7069H75.1277H78.5484H81.9369H85.3577H88.7785H92.1992H95.62H99.0407H102.429H105.85H109.271H112.692H116.112H119.501H122.922H126.342H129.763H133.184H136.605H139.993H143.414H146.835H150.255H153.676H157.065V84.1032H160.485V81.2064H157.065Z" fill="#C1E5F5"/>
<path d="M167.327 55.1032V52.2064V49.3097H163.906V46.4129H160.485V43.5161H157.064V40.6193H153.676H150.255H146.834V37.6903V34.7936V31.8968H143.414V29V26.1032V23.2064H139.993V20.3097H136.604V17.4129H133.184V14.5161H129.763V11.5871H126.342H122.921H119.501H116.112H112.691H109.271H105.85H102.429V14.5161H99.0405V11.5871V8.69034H95.6198V5.79356H92.199H88.7782V2.89678H85.3575V0H81.9367H78.5482H75.1275H71.7067H68.2859H64.8652V2.89678H61.4767H58.0559V5.79356H54.6352V8.69034H51.2144V11.5871H47.7936V14.5161H44.4052V17.4129V20.3097V23.2064H40.9844H37.5636H34.1429H30.7221H27.3336H23.9128H20.4921V26.1032H17.0713H13.6506V29H10.2298V31.8968H6.84131V34.7936V37.6903V40.6193V43.5161V46.4129V49.3097H10.2298V52.2064V55.1032H13.6506V58H17.0713V60.8968H20.4921H23.9128H27.3336H30.7221H34.1429H37.5636V58H40.9844V55.1032H44.4052H47.7936V58H51.2144V60.8968H54.6352V63.8257H58.0559H61.4767V66.7225H64.8652H68.2859H71.7067H75.1275H78.5482H81.9367H85.3575H88.7782V63.8257H92.199H95.6198V60.8968H99.0405V58H102.429V55.1032H105.85V52.2064V49.3097H109.271V46.4129H112.691V49.3097H116.112V52.2064H119.501V55.1032H122.921H126.342H129.763H133.184H136.604H139.993V52.2064H143.414V49.3097H146.834V52.2064V55.1032V58V60.8968V63.8257V66.7225V69.6193H150.255V72.5161V75.4129H153.676V78.3097H157.064V81.2064H160.485V84.1032H163.906V81.2064V78.3097H167.327V75.4129H170.747V72.5161V69.6193V66.7225V63.8257V60.8968V58V55.1032H167.327Z" fill="white"/>
</svg>
