<svg width="366" height="272" viewBox="0 0 366 272" fill="none" xmlns="http://www.w3.org/2000/svg">
<path d="M1.51758 5.5L7.01758 0H351.876V4.62988L357.003 6.62988V262.867H0.482422V5.5H1.51758Z" fill="#00E3B5"/>
<path d="M0.965332 32.56H357.486V250.197H0.965332V32.56Z" fill="#E6FCF8"/>
<path d="M18.7914 15H79.4531L96.747 32.56H1.49745L18.7914 15Z" fill="#E6FCF8"/>
<rect y="4.95605" width="4" height="254" fill="#214D59"/>
<rect x="362.519" y="266.23" width="2.51491" height="349.573" transform="rotate(90 362.519 266.23)" fill="#214D59"/>
<rect x="360.006" y="263.715" width="2.51491" height="349.573" transform="rotate(90 360.006 263.715)" fill="#214D59"/>
<rect x="360.006" y="268.745" width="2.51491" height="344.565" transform="rotate(90 360.006 268.745)" fill="#214D59"/>
<rect x="1.51758" y="1.12988" width="4" height="4" fill="#214D59"/>
<rect x="2.88672" y="39.8916" width="2.51478" height="2.51478" fill="#214D59"/>
<rect x="55.7012" y="9.71252" width="2.51478" height="2.51478" fill="#214D59"/>
<rect x="58.2153" y="7.19763" width="2.51478" height="2.51478" fill="#214D59"/>
<rect x="53.187" y="12.2272" width="2.51478" height="2.51478" fill="#214D59"/>
<rect x="55.7012" y="14.7406" width="2.51478" height="2.51478" fill="#214D59"/>
<rect x="58.2153" y="17.2566" width="2.51478" height="2.51478" fill="#214D59"/>
<rect x="20.4912" y="32.3464" width="2.51478" height="2.51478" fill="#214D59"/>
<rect x="23.0059" y="32.3464" width="2.51478" height="2.51478" fill="#214D59"/>
<rect x="25.521" y="34.8611" width="2.51478" height="2.51478" fill="#214D59"/>
<rect x="28.0361" y="37.3745" width="2.51478" height="2.51478" fill="#214D59"/>
<rect x="40.6108" y="32.3464" width="2.51478" height="2.51478" fill="#214D59"/>
<rect width="2.51478" height="2.51478" transform="matrix(-1 0 0 1 63.2456 32.3464)" fill="#214D59"/>
<rect x="38.0967" y="34.8611" width="2.51478" height="2.51478" fill="#214D59"/>
<rect width="2.51478" height="2.51478" transform="matrix(-1 0 0 1 65.7607 34.8611)" fill="#214D59"/>
<rect x="38.0967" y="37.3745" width="2.51478" height="2.51478" fill="#214D59"/>
<rect width="2.51478" height="2.51478" transform="matrix(-1 0 0 1 65.7607 37.3745)" fill="#214D59"/>
<rect x="40.6108" y="39.8916" width="2.51478" height="2.51478" fill="#214D59"/>
<rect width="2.51478" height="2.51478" transform="matrix(-1 0 0 1 63.2456 39.8916)" fill="#214D59"/>
<rect x="45.6421" y="32.3464" width="2.51478" height="2.51478" fill="#214D59"/>
<rect x="48.1553" y="39.8916" width="2.51478" height="2.51478" fill="#214D59"/>
<rect x="50.6704" y="39.8916" width="2.51478" height="2.51478" fill="#214D59"/>
<rect x="53.187" y="37.3745" width="2.51478" height="2.51478" fill="#214D59"/>
<rect x="50.6704" y="32.3464" width="2.51478" height="2.51478" fill="#214D59"/>
<rect x="30.5518" y="39.8916" width="5.0299" height="2.51495" fill="#214D59"/>
<rect width="2.51478" height="2.51478" transform="matrix(-1 0 0 1 75.8193 12.2272)" fill="#214D59"/>
<rect width="2.51478" height="2.51478" transform="matrix(-1 0 0 1 73.3057 9.71252)" fill="#214D59"/>
<rect width="2.51478" height="2.51478" transform="matrix(-1 0 0 1 70.79 7.19763)" fill="#214D59"/>
<rect width="2.51478" height="2.51478" transform="matrix(-1 0 0 1 73.3057 14.7406)" fill="#214D59"/>
<rect width="2" height="10" transform="matrix(-1 0 0 1 85.5356 9.77161)" fill="#214D59"/>
<rect width="2" height="10" transform="matrix(-1 0 0 1 309.536 9.77161)" fill="#214D59"/>
<rect width="2.51478" height="2.51478" transform="matrix(-1 0 0 1 70.9487 17.2566)" fill="#214D59"/>
<rect x="5.40137" y="37.3745" width="2.51478" height="2.51478" fill="#214D59"/>
<rect x="7.91699" y="34.8611" width="2.51478" height="2.51478" fill="#214D59"/>
<rect x="85.8789" y="34.8611" width="2.51478" height="2.51478" fill="#214D59"/>
<rect x="118.574" y="34.8611" width="2.51478" height="2.51478" fill="#214D59"/>
<rect x="88.3945" y="37.3745" width="2.51478" height="2.51478" fill="#214D59"/>
<rect x="103.484" y="33.6023" width="2.51495" height="7.54486" fill="#214D59"/>
<rect x="332.341" y="9.71252" width="2.51495" height="7.54486" fill="#214D59"/>
<rect x="342.4" y="9.71252" width="2.51478" height="2.51478" fill="#214D59"/>
<rect x="342.4" y="14.7406" width="2.51478" height="2.51478" fill="#214D59"/>
<rect x="322.281" y="12.2272" width="2.51478" height="2.51478" fill="#214D59"/>
<rect x="319.767" y="14.7406" width="2.51478" height="2.51478" fill="#214D59"/>
<rect x="317.252" y="12.2272" width="2.51478" height="2.51478" fill="#214D59"/>
<rect x="319.767" y="9.71252" width="2.51478" height="2.51478" fill="#214D59"/>
<rect x="347.43" y="9.71252" width="2.51478" height="2.51478" fill="#214D59"/>
<rect x="347.43" y="14.7406" width="2.51478" height="2.51478" fill="#214D59"/>
<rect x="100.969" y="36.1169" width="7.54486" height="2.51495" fill="#214D59"/>
<rect x="329.826" y="12.2272" width="7.54486" height="2.51495" fill="#214D59"/>
<rect x="121.088" y="37.3745" width="2.51478" height="2.51478" fill="#214D59"/>
<rect x="90.9097" y="39.8916" width="2.51478" height="2.51478" fill="#214D59"/>
<rect x="123.602" y="39.8916" width="2.51478" height="2.51478" fill="#214D59"/>
<rect x="93.4243" y="42.405" width="32.6939" height="2.51491" fill="#214D59"/>
<rect x="126.118" y="42.405" width="2.51478" height="2.51478" fill="#214D59"/>
<rect x="12.9458" y="29.8302" width="2.51478" height="2.51478" fill="#214D59"/>
<rect x="80.8496" y="29.8302" width="2.51478" height="2.51478" fill="#214D59"/>
<rect x="85.8789" y="29.8302" width="2.51478" height="2.51478" fill="#214D59"/>
<rect x="113.544" y="29.8302" width="2.51478" height="2.51478" fill="#214D59"/>
<rect x="15.4619" y="27.3168" width="65.3878" height="2.51491" fill="#214D59"/>
<rect x="88.3945" y="27.3168" width="25.1495" height="2.51495" fill="#214D59"/>
<rect x="10.4316" y="32.3464" width="2.51478" height="2.51478" fill="#214D59"/>
<rect x="83.3647" y="32.3464" width="2.51478" height="2.51478" fill="#214D59"/>
<rect x="116.059" y="32.3464" width="2.51478" height="2.51478" fill="#214D59"/>
<rect x="10.4326" y="7.19556" width="5.0299" height="2.51495" fill="#214D59"/>
<rect x="23.0063" y="7.19556" width="5.0299" height="2.51495" fill="#214D59"/>
<rect x="35.5815" y="7.19556" width="5.0299" height="2.51495" fill="#214D59"/>
<rect x="7.91699" y="9.71167" width="2.51495" height="5.0299" fill="#214D59"/>
<rect x="20.4917" y="9.71167" width="2.51495" height="5.0299" fill="#214D59"/>
<rect x="33.0669" y="9.71167" width="2.51495" height="5.0299" fill="#214D59"/>
<rect x="10.4316" y="14.741" width="5.0299" height="2.51495" fill="#214D59"/>
<rect x="23.0063" y="14.741" width="5.0299" height="2.51495" fill="#214D59"/>
<rect x="35.5815" y="14.741" width="5.0299" height="2.51495" fill="#214D59"/>
<rect x="15.4619" y="9.71167" width="2.51495" height="5.0299" fill="#214D59"/>
<rect x="28.0361" y="9.71167" width="2.51495" height="5.0299" fill="#214D59"/>
<rect x="40.6108" y="9.71167" width="2.51495" height="5.0299" fill="#214D59"/>
<rect x="350.518" y="2.12988" width="4" height="4" fill="#214D59"/>
<rect x="2.51758" y="258.13" width="4" height="4" fill="#214D59"/>
<rect x="5.51758" y="0.0415039" width="347" height="4" fill="#214D59"/>
<rect x="85.5176" y="7.12988" width="221.313" height="2.51491" fill="#214D59"/>
<rect x="85.8789" y="19.77" width="221.313" height="2.51491" fill="#214D59"/>
<rect x="118.938" y="42.405" width="238.552" height="2.51491" fill="#214D59"/>
<rect x="357.518" y="262.13" width="4" height="257" transform="rotate(180 357.518 262.13)" fill="#214D59"/>
<rect width="2.51478" height="2.51478" transform="matrix(1 0 0 -1 352.46 261.201)" fill="#214D59"/>
<rect x="360.006" y="263.715" width="2.51491" height="253.576" transform="rotate(180 360.006 263.715)" fill="#214D59"/>
<rect x="362.519" y="266.23" width="2.51491" height="253.362" transform="rotate(180 362.519 266.23)" fill="#214D59"/>
<rect x="365.035" y="266.23" width="2.51491" height="250.633" transform="rotate(180 365.035 266.23)" fill="#214D59"/>
<rect x="357.518" y="264.13" width="352" height="4" transform="rotate(180 357.518 264.13)" fill="#214D59"/>
<rect x="335.518" y="191.13" width="12" height="12" fill="#214D59"/>
<rect x="340.518" y="206.13" width="4" height="50" fill="#214D59"/>
<rect x="344.518" y="50.1299" width="138" height="3.99999" transform="rotate(90 344.518 50.1299)" fill="#214D59"/>
<path d="M128.649 104.103V114.617C128.649 115.006 128.717 115.451 128.851 115.948H123.867C123.989 115.531 124.049 115.087 124.049 114.617V89.7558C124.049 89.2577 123.989 88.8067 123.867 88.4038H132.685C134.838 88.4038 136.661 88.8339 138.154 89.6951C140.442 91.0397 141.584 93.1389 141.584 95.9914C141.584 99.1788 140.193 101.473 137.407 102.872C135.78 103.693 133.835 104.103 131.575 104.103H128.649ZM128.649 101.984H131.112C132.456 101.984 133.54 101.742 134.361 101.258C135.154 100.787 135.766 100.101 136.196 99.1998C136.668 98.2308 136.903 97.1885 136.903 96.072C136.903 94.0273 136.251 92.4995 134.946 91.4908C134.057 90.7918 132.907 90.4412 131.495 90.4412H128.649V101.984Z" fill="#233E69"/>
<path d="M149.938 103.175V114.617C149.938 115.087 149.999 115.531 150.12 115.948H145.135C145.256 115.598 145.317 115.155 145.317 114.617V89.715C145.317 89.2577 145.256 88.8203 145.135 88.4038H153.509C155.42 88.4038 157.094 88.8004 158.534 89.5936C159.691 90.2402 160.585 91.1078 161.217 92.1971C161.85 93.2864 162.166 94.5044 162.166 95.8501C162.166 98.9298 160.714 101.029 157.808 102.145C157.014 102.442 155.991 102.711 154.74 102.952L163.781 114.858C164.158 115.343 164.527 115.706 164.89 115.948H158.878C158.743 115.531 158.548 115.134 158.291 114.758L149.938 103.175ZM149.918 101.6H152.057C153.307 101.6 154.384 101.284 155.285 100.652C156.751 99.6027 157.485 98.0696 157.485 96.0511C157.485 94.1811 156.866 92.6952 155.628 91.5922C154.727 90.798 153.462 90.4014 151.835 90.4014H149.918V101.6Z" fill="#233E69"/>
<path d="M179.299 88C183.255 88 186.416 89.1166 188.783 91.3496C191.394 93.8255 192.699 97.4241 192.699 102.146C192.699 106.8 191.453 110.365 188.965 112.841C186.611 115.182 183.314 116.352 179.077 116.352C174.625 116.352 171.268 115.1 169.008 112.598C166.694 110.043 165.537 106.565 165.537 102.165C165.537 97.4974 166.802 93.9259 169.331 91.4511C171.698 89.15 175.021 88 179.299 88ZM178.976 90.1389C176.044 90.1389 173.858 91.2827 172.418 93.5691C171.113 95.6546 170.461 98.5135 170.461 102.146C170.461 105.791 171.113 108.664 172.418 110.762C173.844 113.063 176.091 114.213 179.158 114.213C182.077 114.213 184.283 113.069 185.777 110.783C187.122 108.725 187.795 105.899 187.795 102.307C187.795 94.1949 184.856 90.1389 178.976 90.1389Z" fill="#233E69"/>
<path d="M197.279 88.4038H211.566V90.6432C211.149 90.5092 210.719 90.4412 210.275 90.4412H202.061V100.935H210.053C210.632 100.935 211.136 100.874 211.566 100.754V102.993C211.203 102.913 210.712 102.872 210.093 102.872H202.061V113.728H210.032C210.477 113.728 210.987 113.661 211.566 113.526V115.948H197.299C197.407 115.545 197.461 115.108 197.461 114.637V89.7348C197.461 89.1834 197.401 88.7397 197.279 88.4038Z" fill="#233E69"/>
<path d="M235.78 89.2107V92.9235C234.892 92.2109 234.132 91.6793 233.5 91.3298C232.209 90.6171 230.775 90.2603 229.201 90.2603C226.188 90.2603 223.894 91.404 222.32 93.6905C220.814 95.8702 220.06 98.6683 220.06 102.085C220.06 105.731 220.921 108.643 222.643 110.823C224.325 112.948 226.558 114.011 229.343 114.011C230.957 114.011 232.437 113.581 233.783 112.72C234.307 112.383 234.972 111.831 235.78 111.065V114.697C234.852 115.128 234.032 115.457 233.318 115.686C231.96 116.13 230.385 116.352 228.597 116.352C224.345 116.352 221.083 115.175 218.809 112.82C216.374 110.291 215.157 106.68 215.157 101.984C215.157 99.7776 215.432 97.8678 215.984 96.2532C216.535 94.6385 217.39 93.2133 218.547 91.9754C221.049 89.3248 224.6 88 229.201 88C231.542 88 233.736 88.404 235.78 89.2107Z" fill="#233E69"/>
<path d="M111.177 150.569V155.602C111.177 155.789 111.209 156.001 111.274 156.24H108.888C108.946 156.04 108.975 155.827 108.975 155.602V143.701C108.975 143.463 108.946 143.247 108.888 143.054H113.109C114.139 143.054 115.012 143.26 115.727 143.672C116.821 144.317 117.369 145.321 117.369 146.686C117.369 148.213 116.703 149.31 115.37 149.98C114.59 150.373 113.66 150.569 112.578 150.569H111.177ZM111.177 149.555H112.356C113 149.555 113.518 149.439 113.911 149.208C114.291 148.982 114.584 148.653 114.79 148.222C115.015 147.758 115.128 147.259 115.128 146.725C115.128 145.746 114.815 145.015 114.191 144.532C113.766 144.197 113.215 144.03 112.539 144.03H111.177V149.555Z" fill="#233E69"/>
<path d="M121.369 150.125V155.602C121.369 155.827 121.398 156.04 121.456 156.24H119.07C119.128 156.072 119.157 155.86 119.157 155.602V143.682C119.157 143.463 119.128 143.254 119.07 143.054H123.079C123.993 143.054 124.795 143.244 125.484 143.624C126.038 143.933 126.466 144.348 126.769 144.87C127.072 145.391 127.223 145.974 127.223 146.619C127.223 148.093 126.528 149.098 125.137 149.633C124.756 149.774 124.267 149.903 123.668 150.019L127.996 155.719C128.176 155.95 128.354 156.124 128.527 156.24H125.649C125.584 156.04 125.491 155.85 125.368 155.669L121.369 150.125ZM121.359 149.372H122.384C122.982 149.372 123.497 149.22 123.929 148.918C124.631 148.416 124.982 147.681 124.982 146.715C124.982 145.819 124.686 145.109 124.094 144.58C123.662 144.201 123.057 144.01 122.277 144.01H121.359V149.372Z" fill="#233E69"/>
<path d="M135.423 142.861C137.316 142.861 138.829 143.395 139.964 144.464C141.212 145.649 141.838 147.372 141.838 149.632C141.838 151.86 141.241 153.567 140.05 154.752C138.923 155.872 137.346 156.433 135.317 156.433C133.185 156.433 131.579 155.834 130.497 154.636C129.389 153.412 128.835 151.748 128.835 149.642C128.835 147.408 129.441 145.698 130.652 144.512C131.785 143.411 133.375 142.861 135.423 142.861ZM135.268 143.884C133.864 143.884 132.819 144.432 132.129 145.527C131.504 146.526 131.193 147.893 131.193 149.632C131.193 151.378 131.504 152.753 132.129 153.757C132.811 154.858 133.887 155.409 135.355 155.409C136.753 155.409 137.809 154.861 138.524 153.767C139.168 152.781 139.49 151.429 139.49 149.71C139.49 145.827 138.083 143.884 135.268 143.884ZM134.196 142.291L135.539 139.238H137.268L135.191 142.291H134.196Z" fill="#233E69"/>
<path d="M142.64 151.632L143.093 150.077H147.305L146.87 151.632H142.64Z" fill="#233E69"/>
<path d="M151.005 150.125V155.602C151.005 155.827 151.034 156.04 151.091 156.24H148.706C148.763 156.072 148.792 155.86 148.792 155.602V143.682C148.792 143.463 148.763 143.254 148.706 143.054H152.714C153.629 143.054 154.431 143.244 155.119 143.624C155.674 143.933 156.102 144.348 156.404 144.87C156.707 145.391 156.858 145.974 156.858 146.619C156.858 148.093 156.162 149.098 154.772 149.633C154.392 149.774 153.902 149.903 153.304 150.019L157.632 155.719C157.812 155.95 157.988 156.124 158.162 156.24H155.283C155.22 156.04 155.125 155.85 155.004 155.669L151.005 150.125ZM150.995 149.372H152.019C152.617 149.372 153.133 149.22 153.564 148.918C154.266 148.416 154.617 147.681 154.617 146.715C154.617 145.819 154.321 145.109 153.728 144.58C153.297 144.201 152.691 144.01 151.913 144.01H150.995V149.372Z" fill="#233E69"/>
<path d="M159.371 143.054H166.21V144.126C166.01 144.061 165.804 144.03 165.592 144.03H161.66V149.053H165.486C165.762 149.053 166.004 149.024 166.21 148.966V150.039C166.036 150 165.801 149.98 165.505 149.98H161.66V155.178H165.475C165.688 155.178 165.933 155.145 166.21 155.08V156.24H159.38C159.432 156.046 159.457 155.837 159.457 155.612V143.692C159.457 143.427 159.429 143.215 159.371 143.054Z" fill="#233E69"/>
<path d="M168.663 143.054H171.04C170.987 143.209 170.959 143.418 170.953 143.682V155.602C170.959 155.872 170.987 156.085 171.04 156.24H168.663C168.721 156.046 168.75 155.834 168.75 155.602V143.682C168.75 143.457 168.721 143.247 168.663 143.054Z" fill="#233E69"/>
<path d="M172.18 143.054H181.743V144.252C181.427 144.194 181.154 144.165 180.921 144.165H178.082V155.602C178.082 155.834 178.111 156.046 178.168 156.24H175.792C175.851 156.053 175.879 155.84 175.879 155.602V144.165H173.02C172.75 144.165 172.47 144.194 172.18 144.252V143.054Z" fill="#233E69"/>
<path d="M188.321 142.861C190.215 142.861 191.728 143.395 192.862 144.464C194.111 145.649 194.736 147.372 194.736 149.632C194.736 151.86 194.14 153.567 192.948 154.752C191.821 155.872 190.243 156.433 188.215 156.433C186.084 156.433 184.477 155.834 183.395 154.636C182.287 153.412 181.734 151.748 181.734 149.642C181.734 147.408 182.339 145.698 183.549 144.512C184.683 143.411 186.273 142.861 188.321 142.861ZM188.167 143.884C186.763 143.884 185.717 144.432 185.027 145.527C184.403 146.526 184.09 147.893 184.09 149.632C184.09 151.378 184.403 152.753 185.027 153.757C185.71 154.858 186.785 155.409 188.254 155.409C189.651 155.409 190.707 154.861 191.423 153.767C192.066 152.781 192.389 151.429 192.389 149.71C192.389 145.827 190.981 143.884 188.167 143.884Z" fill="#233E69"/>
<path d="M199.227 150.125V155.602C199.227 155.827 199.256 156.04 199.315 156.24H196.928C196.986 156.072 197.015 155.86 197.015 155.602V143.682C197.015 143.463 196.986 143.254 196.928 143.054H200.937C201.851 143.054 202.653 143.244 203.342 143.624C203.896 143.933 204.324 144.348 204.627 144.87C204.93 145.391 205.081 145.974 205.081 146.619C205.081 148.093 204.386 149.098 202.995 149.633C202.614 149.774 202.125 149.903 201.526 150.019L205.854 155.719C206.034 155.95 206.212 156.124 206.385 156.24H203.507C203.442 156.04 203.349 155.85 203.226 155.669L199.227 150.125ZM199.217 149.372H200.242C200.84 149.372 201.355 149.22 201.787 148.918C202.488 148.416 202.84 147.681 202.84 146.715C202.84 145.819 202.544 145.109 201.952 144.58C201.519 144.201 200.915 144.01 200.135 144.01H199.217V149.372Z" fill="#233E69"/>
<path d="M207.708 143.054H210.084C210.033 143.209 210.004 143.418 209.997 143.682V155.602C210.004 155.872 210.033 156.085 210.084 156.24H207.708C207.766 156.046 207.795 155.834 207.795 155.602V143.682C207.795 143.457 207.766 143.247 207.708 143.054Z" fill="#233E69"/>
<path d="M214.161 152.105L212.885 155.689C212.828 155.85 212.803 156.034 212.809 156.24H211.562C211.685 156.046 211.775 155.863 211.832 155.689L216.151 143.537C216.209 143.37 216.238 143.209 216.238 143.054H218.16C218.166 143.19 218.196 143.334 218.247 143.489L222.701 155.689C222.764 155.844 222.871 156.027 223.019 156.24H220.439C220.439 156.066 220.408 155.883 220.343 155.689L219.078 152.105H214.161ZM214.499 151.139H218.711L216.576 145.179L214.499 151.139Z" fill="#233E69"/>
<path d="M229.771 143.054H233.838C235.339 143.054 236.617 143.36 237.673 143.971C238.639 144.526 239.36 145.289 239.837 146.261C240.327 147.247 240.571 148.338 240.571 149.535C240.571 150.766 240.336 151.864 239.866 152.829C239.402 153.795 238.726 154.592 237.837 155.216C236.852 155.899 235.709 156.24 234.408 156.24H229.771C229.829 156.046 229.858 155.834 229.858 155.602V143.682C229.858 143.438 229.829 143.228 229.771 143.054ZM232.061 155.11H233.847C235.019 155.11 235.96 154.762 236.669 154.066C237.171 153.57 237.554 152.93 237.817 152.144C238.089 151.358 238.223 150.482 238.223 149.516C238.223 147.462 237.574 145.959 236.272 145.005C235.493 144.432 234.569 144.146 233.5 144.146H232.061V155.11Z" fill="#233E69"/>
<path d="M242.774 143.054H249.613V144.126C249.414 144.061 249.207 144.03 248.995 144.03H245.064V149.053H248.888C249.166 149.053 249.407 149.024 249.613 148.966V150.039C249.44 150 249.204 149.98 248.908 149.98H245.064V155.178H248.879C249.091 155.178 249.336 155.145 249.613 155.08V156.24H242.783C242.835 156.046 242.861 155.837 242.861 155.612V143.692C242.861 143.427 242.831 143.215 242.774 143.054Z" fill="#233E69"/>
<path d="M90.1279 164.621H96.9674V165.694C96.7675 165.629 96.5614 165.598 96.349 165.598H92.4176V170.621H96.2432C96.5195 170.621 96.7613 170.591 96.9674 170.534V171.605C96.7937 171.568 96.5582 171.548 96.2621 171.548H92.4176V176.744H96.2328C96.4463 176.744 96.6901 176.713 96.9674 176.648V177.807H90.1384C90.1897 177.614 90.2148 177.405 90.2148 177.18V165.259C90.2148 164.995 90.1865 164.783 90.1279 164.621Z" fill="#233E69"/>
<path d="M101.75 171.248L98.4262 165.192C98.3163 164.986 98.1907 164.795 98.0494 164.621H100.619C100.69 164.834 100.77 165.024 100.86 165.192L103.266 169.49L105.816 165.192C105.887 165.063 105.98 164.873 106.096 164.621H107.343C107.174 164.847 107.046 165.037 106.956 165.192L103.778 170.456L107.516 177.237C107.639 177.456 107.757 177.646 107.873 177.807H105.294C105.236 177.608 105.156 177.418 105.053 177.237L102.261 172.292L99.2863 177.237C99.1764 177.431 99.0864 177.62 99.0153 177.807H97.7407C97.927 177.589 98.0693 177.398 98.1656 177.237L101.75 171.248Z" fill="#233E69"/>
<path d="M107.323 164.621H116.887V165.82C116.572 165.761 116.297 165.733 116.065 165.733H113.225V177.17C113.225 177.401 113.254 177.614 113.312 177.807H110.937C110.994 177.62 111.023 177.408 111.023 177.17V165.733H108.164C107.894 165.733 107.613 165.761 107.323 165.82V164.621Z" fill="#233E69"/>
<path d="M117.91 164.621H124.749V165.694C124.549 165.629 124.344 165.598 124.131 165.598H120.199V170.621H124.025C124.302 170.621 124.543 170.591 124.749 170.534V171.605C124.575 171.568 124.34 171.548 124.044 171.548H120.199V176.744H124.016C124.228 176.744 124.473 176.713 124.749 176.648V177.807H117.92C117.971 177.614 117.998 177.405 117.998 177.18V165.259C117.998 164.995 117.968 164.783 117.91 164.621Z" fill="#233E69"/>
<path d="M128.13 167.056V177.17C128.13 177.408 128.159 177.62 128.216 177.807H127.038C127.097 177.614 127.125 177.401 127.125 177.17V165.259C127.125 165.015 127.097 164.802 127.038 164.621H129.134C129.167 164.75 129.244 164.902 129.366 165.076L136.572 175.151V165.259C136.572 165.034 136.544 164.821 136.485 164.621H137.664C137.612 164.77 137.584 164.979 137.577 165.249V177.218C137.584 177.476 137.615 177.672 137.674 177.807H135.752C135.713 177.698 135.617 177.533 135.462 177.315L128.13 167.056Z" fill="#233E69"/>
<path d="M139.568 176.986L140.013 175.422C140.366 175.724 140.659 175.955 140.892 176.116C141.586 176.6 142.34 176.842 143.152 176.842C143.957 176.842 144.591 176.603 145.054 176.127C145.467 175.701 145.673 175.18 145.673 174.561C145.673 173.84 145.38 173.258 144.794 172.813C144.524 172.607 143.857 172.253 142.794 171.751C141.693 171.229 140.917 170.711 140.467 170.196C139.932 169.59 139.664 168.881 139.664 168.07C139.664 167.491 139.796 166.95 140.061 166.447C140.331 165.945 140.707 165.527 141.191 165.192C141.924 164.683 142.875 164.429 144.04 164.429C145.032 164.429 146.056 164.663 147.113 165.133L146.697 166.534C145.679 165.832 144.749 165.482 143.905 165.482C143.236 165.482 142.691 165.694 142.273 166.119C141.918 166.486 141.741 166.928 141.741 167.443C141.741 168.054 142.002 168.563 142.524 168.968C142.859 169.233 143.509 169.587 144.475 170.031C145.693 170.585 146.516 171.126 146.948 171.654C147.489 172.324 147.759 173.1 147.759 173.982C147.759 174.581 147.627 175.157 147.364 175.711C147.106 176.259 146.742 176.719 146.271 177.093C145.518 177.698 144.501 178 143.219 178C142.208 178 141.245 177.795 140.331 177.383C140.125 177.285 139.87 177.153 139.568 176.986Z" fill="#233E69"/>
<path d="M150.869 173.673L149.594 177.257C149.536 177.418 149.51 177.601 149.516 177.807H148.27C148.392 177.614 148.483 177.431 148.541 177.257L152.859 165.105C152.917 164.937 152.945 164.776 152.945 164.621H154.868C154.875 164.757 154.903 164.902 154.955 165.057L159.408 177.257C159.473 177.411 159.579 177.595 159.727 177.807H157.148C157.148 177.634 157.115 177.45 157.052 177.257L155.785 173.673H150.869ZM151.207 172.707H155.419L153.283 166.747L151.207 172.707ZM151.052 163.028V161.665C151.716 161.447 152.254 161.338 152.666 161.338C153.04 161.338 153.832 161.488 155.042 161.791C155.241 161.836 155.438 161.859 155.632 161.859C155.934 161.859 156.278 161.746 156.664 161.521V162.873C156.214 163.048 155.844 163.133 155.554 163.133C155.322 163.133 154.753 163.021 153.844 162.795C153.322 162.668 152.888 162.603 152.54 162.603C152.122 162.603 151.626 162.744 151.052 163.028Z" fill="#233E69"/>
<path d="M166.567 164.429C168.46 164.429 169.973 164.963 171.106 166.032C172.356 167.217 172.98 168.94 172.98 171.2C172.98 173.428 172.385 175.135 171.193 176.319C170.066 177.44 168.489 178 166.46 178C164.329 178 162.721 177.401 161.639 176.203C160.532 174.98 159.979 173.315 159.979 171.21C159.979 168.975 160.583 167.265 161.794 166.08C162.927 164.979 164.518 164.429 166.567 164.429ZM166.412 165.452C165.008 165.452 163.961 166 163.273 167.094C162.648 168.092 162.335 169.461 162.335 171.2C162.335 172.945 162.648 174.32 163.273 175.324C163.955 176.426 165.031 176.977 166.499 176.977C167.896 176.977 168.953 176.429 169.667 175.335C170.311 174.349 170.633 172.997 170.633 171.278C170.633 167.394 169.226 165.452 166.412 165.452Z" fill="#233E69"/>
<path d="M180.562 164.621H187.402V165.694C187.203 165.629 186.997 165.598 186.784 165.598H182.852V170.621H186.678C186.955 170.621 187.196 170.591 187.402 170.534V171.605C187.228 171.568 186.993 171.548 186.697 171.548H182.852V176.744H186.668C186.881 176.744 187.126 176.713 187.402 176.648V177.807H180.573C180.624 177.614 180.65 177.405 180.65 177.18V165.259C180.65 164.995 180.621 164.783 180.562 164.621Z" fill="#233E69"/>
<path d="M204.385 165.008V166.785C203.96 166.444 203.596 166.19 203.294 166.023C202.675 165.681 201.99 165.511 201.235 165.511C199.793 165.511 198.696 166.057 197.942 167.153C197.22 168.196 196.86 169.535 196.86 171.171C196.86 172.916 197.273 174.31 198.096 175.354C198.902 176.372 199.97 176.88 201.303 176.88C202.077 176.88 202.785 176.674 203.429 176.262C203.68 176.101 203.999 175.837 204.385 175.47V177.208C203.94 177.415 203.548 177.572 203.207 177.682C202.556 177.894 201.803 178 200.947 178C198.911 178 197.349 177.437 196.261 176.31C195.095 175.099 194.513 173.371 194.513 171.123C194.513 170.067 194.645 169.152 194.909 168.379C195.172 167.607 195.582 166.924 196.136 166.331C197.333 165.063 199.034 164.429 201.235 164.429C202.356 164.429 203.406 164.621 204.385 165.008Z" fill="#233E69"/>
<path d="M216.72 164.621C216.663 164.802 216.634 165.015 216.634 165.259V173.441C216.634 174.498 216.382 175.389 215.88 176.116C215.443 176.755 214.846 177.228 214.093 177.536C213.347 177.846 212.422 178 211.321 178C210.343 178 209.515 177.868 208.839 177.604C208.162 177.334 207.599 176.916 207.148 176.349C206.529 175.569 206.221 174.636 206.221 173.547V165.259C206.221 165.027 206.191 164.815 206.134 164.621H208.51C208.452 164.821 208.423 165.031 208.423 165.249V173.586C208.423 174.372 208.606 175.035 208.974 175.575C209.579 176.477 210.555 176.928 211.901 176.928C213.362 176.928 214.406 176.477 215.031 175.575C215.443 174.977 215.649 174.214 215.649 173.287V165.259C215.642 165.001 215.613 164.789 215.562 164.621H216.72Z" fill="#233E69"/>
<path d="M226.071 177.807H219.377C219.435 177.62 219.464 177.415 219.464 177.189V165.259C219.464 165.027 219.435 164.815 219.377 164.621H221.753C221.695 164.815 221.667 165.027 221.667 165.259V176.744H225.404C225.688 176.738 225.91 176.709 226.071 176.657V177.807Z" fill="#233E69"/>
<path d="M224.941 164.621H234.505V165.82C234.19 165.761 233.916 165.733 233.683 165.733H230.843V177.17C230.843 177.401 230.873 177.614 230.93 177.807H228.555C228.612 177.62 228.642 177.408 228.642 177.17V165.733H225.782C225.512 165.733 225.231 165.761 224.941 165.82V164.621Z" fill="#233E69"/>
<path d="M245.991 164.621C245.933 164.802 245.904 165.015 245.904 165.259V173.441C245.904 174.498 245.652 175.389 245.15 176.116C244.712 176.755 244.116 177.228 243.363 177.536C242.616 177.846 241.692 178 240.591 178C239.611 178 238.785 177.868 238.108 177.604C237.432 177.334 236.869 176.916 236.418 176.349C235.799 175.569 235.491 174.636 235.491 173.547V165.259C235.491 165.027 235.461 164.815 235.404 164.621H237.779C237.722 164.821 237.692 165.031 237.692 165.249V173.586C237.692 174.372 237.876 175.035 238.244 175.575C238.849 176.477 239.824 176.928 241.171 176.928C242.633 176.928 243.676 176.477 244.299 175.575C244.712 174.977 244.918 174.214 244.918 173.287V165.259C244.912 165.001 244.882 164.789 244.831 164.621H245.991Z" fill="#233E69"/>
<path d="M250.945 171.693V177.17C250.945 177.395 250.974 177.608 251.032 177.807H248.646C248.704 177.64 248.733 177.428 248.733 177.17V165.249C248.733 165.031 248.704 164.821 248.646 164.621H252.655C253.57 164.621 254.371 164.812 255.06 165.192C255.614 165.5 256.043 165.916 256.345 166.438C256.647 166.959 256.799 167.542 256.799 168.187C256.799 169.661 256.103 170.666 254.713 171.2C254.333 171.342 253.843 171.47 253.244 171.586L257.571 177.285C257.752 177.518 257.929 177.691 258.103 177.807H255.224C255.16 177.608 255.066 177.418 254.944 177.237L250.945 171.693ZM250.935 170.94H251.959C252.558 170.94 253.074 170.788 253.505 170.486C254.207 169.983 254.558 169.249 254.558 168.283C254.558 167.387 254.262 166.676 253.669 166.148C253.238 165.768 252.632 165.578 251.853 165.578H250.935V170.94Z" fill="#233E69"/>
<path d="M260.489 173.673L259.215 177.257C259.156 177.418 259.131 177.601 259.137 177.807H257.891C258.014 177.614 258.104 177.431 258.161 177.257L262.48 165.105C262.537 164.937 262.567 164.776 262.567 164.621H264.489C264.495 164.757 264.524 164.902 264.576 165.057L269.029 177.257C269.093 177.411 269.2 177.595 269.347 177.807H266.768C266.768 177.634 266.737 177.45 266.672 177.257L265.407 173.673H260.489ZM260.827 172.707H265.039L262.905 166.747L260.827 172.707Z" fill="#233E69"/>
<path d="M88.9653 122.348H269.091V135.62H88.9653V122.348Z" fill="#94C348"/>
</svg>
