<svg width="366" height="272" viewBox="0 0 366 272" fill="none" xmlns="http://www.w3.org/2000/svg">
<path d="M1.51758 5.5L7.01758 0H351.876V4.62988L357.003 6.62988V262.867H0.482422V5.5H1.51758Z" fill="#F9C62C"/>
<path d="M0.930664 45.56H357.451V263.197H0.930664V45.56Z" fill="#FEF9EA"/>
<path d="M18.7567 28H79.4184L96.7123 45.56H1.46278L18.7567 28Z" fill="#FEF9EA"/>
<rect y="4.95605" width="4" height="254" fill="#214D59"/>
<rect x="362.519" y="266.23" width="2.51491" height="349.573" transform="rotate(90 362.519 266.23)" fill="#214D59"/>
<rect x="360.006" y="263.715" width="2.51491" height="349.573" transform="rotate(90 360.006 263.715)" fill="#214D59"/>
<rect x="360.006" y="268.745" width="2.51491" height="344.565" transform="rotate(90 360.006 268.745)" fill="#214D59"/>
<rect x="1.51758" y="1.12988" width="4" height="4" fill="#214D59"/>
<rect x="2.88672" y="39.8916" width="2.51478" height="2.51478" fill="#214D59"/>
<rect x="55.7012" y="9.71252" width="2.51478" height="2.51478" fill="#214D59"/>
<rect x="58.2153" y="7.19763" width="2.51478" height="2.51478" fill="#214D59"/>
<rect x="53.187" y="12.2272" width="2.51478" height="2.51478" fill="#214D59"/>
<rect x="55.7012" y="14.7406" width="2.51478" height="2.51478" fill="#214D59"/>
<rect x="58.2153" y="17.2566" width="2.51478" height="2.51478" fill="#214D59"/>
<rect x="20.4912" y="32.3464" width="2.51478" height="2.51478" fill="#214D59"/>
<rect x="23.0059" y="32.3464" width="2.51478" height="2.51478" fill="#214D59"/>
<rect x="25.521" y="34.8611" width="2.51478" height="2.51478" fill="#214D59"/>
<rect x="28.0361" y="37.3745" width="2.51478" height="2.51478" fill="#214D59"/>
<rect x="40.6108" y="32.3464" width="2.51478" height="2.51478" fill="#214D59"/>
<rect width="2.51478" height="2.51478" transform="matrix(-1 0 0 1 63.2456 32.3464)" fill="#214D59"/>
<rect x="38.0967" y="34.8611" width="2.51478" height="2.51478" fill="#214D59"/>
<rect width="2.51478" height="2.51478" transform="matrix(-1 0 0 1 65.7607 34.8611)" fill="#214D59"/>
<rect x="38.0967" y="37.3745" width="2.51478" height="2.51478" fill="#214D59"/>
<rect width="2.51478" height="2.51478" transform="matrix(-1 0 0 1 65.7607 37.3745)" fill="#214D59"/>
<rect x="40.6108" y="39.8916" width="2.51478" height="2.51478" fill="#214D59"/>
<rect width="2.51478" height="2.51478" transform="matrix(-1 0 0 1 63.2456 39.8916)" fill="#214D59"/>
<rect x="45.6421" y="32.3464" width="2.51478" height="2.51478" fill="#214D59"/>
<rect x="48.1553" y="39.8916" width="2.51478" height="2.51478" fill="#214D59"/>
<rect x="50.6704" y="39.8916" width="2.51478" height="2.51478" fill="#214D59"/>
<rect x="53.187" y="37.3745" width="2.51478" height="2.51478" fill="#214D59"/>
<rect x="50.6704" y="32.3464" width="2.51478" height="2.51478" fill="#214D59"/>
<rect x="30.5518" y="39.8916" width="5.0299" height="2.51495" fill="#214D59"/>
<rect width="2.51478" height="2.51478" transform="matrix(-1 0 0 1 75.8193 12.2272)" fill="#214D59"/>
<rect width="2.51478" height="2.51478" transform="matrix(-1 0 0 1 73.3057 9.71252)" fill="#214D59"/>
<rect width="2.51478" height="2.51478" transform="matrix(-1 0 0 1 70.79 7.19763)" fill="#214D59"/>
<rect width="2.51478" height="2.51478" transform="matrix(-1 0 0 1 73.3057 14.7406)" fill="#214D59"/>
<rect width="2" height="10" transform="matrix(-1 0 0 1 85.5356 9.77161)" fill="#214D59"/>
<rect width="2" height="10" transform="matrix(-1 0 0 1 309.536 9.77161)" fill="#214D59"/>
<rect width="2.51478" height="2.51478" transform="matrix(-1 0 0 1 70.9487 17.2566)" fill="#214D59"/>
<rect x="5.40137" y="37.3745" width="2.51478" height="2.51478" fill="#214D59"/>
<rect x="7.91699" y="34.8611" width="2.51478" height="2.51478" fill="#214D59"/>
<rect x="85.8789" y="34.8611" width="2.51478" height="2.51478" fill="#214D59"/>
<rect x="118.574" y="34.8611" width="2.51478" height="2.51478" fill="#214D59"/>
<rect x="88.3945" y="37.3745" width="2.51478" height="2.51478" fill="#214D59"/>
<rect x="103.484" y="33.6023" width="2.51495" height="7.54486" fill="#214D59"/>
<rect x="332.341" y="9.71252" width="2.51495" height="7.54486" fill="#214D59"/>
<rect x="342.4" y="9.71252" width="2.51478" height="2.51478" fill="#214D59"/>
<rect x="342.4" y="14.7406" width="2.51478" height="2.51478" fill="#214D59"/>
<rect x="322.281" y="12.2272" width="2.51478" height="2.51478" fill="#214D59"/>
<rect x="319.767" y="14.7406" width="2.51478" height="2.51478" fill="#214D59"/>
<rect x="317.252" y="12.2272" width="2.51478" height="2.51478" fill="#214D59"/>
<rect x="319.767" y="9.71252" width="2.51478" height="2.51478" fill="#214D59"/>
<rect x="347.43" y="9.71252" width="2.51478" height="2.51478" fill="#214D59"/>
<rect x="347.43" y="14.7406" width="2.51478" height="2.51478" fill="#214D59"/>
<rect x="100.969" y="36.1169" width="7.54486" height="2.51495" fill="#214D59"/>
<rect x="329.826" y="12.2272" width="7.54486" height="2.51495" fill="#214D59"/>
<rect x="121.088" y="37.3745" width="2.51478" height="2.51478" fill="#214D59"/>
<rect x="90.9097" y="39.8916" width="2.51478" height="2.51478" fill="#214D59"/>
<rect x="123.602" y="39.8916" width="2.51478" height="2.51478" fill="#214D59"/>
<rect x="93.4243" y="42.405" width="32.6939" height="2.51491" fill="#214D59"/>
<rect x="126.118" y="42.405" width="2.51478" height="2.51478" fill="#214D59"/>
<rect x="12.9458" y="29.8302" width="2.51478" height="2.51478" fill="#214D59"/>
<rect x="80.8496" y="29.8302" width="2.51478" height="2.51478" fill="#214D59"/>
<rect x="85.8789" y="29.8302" width="2.51478" height="2.51478" fill="#214D59"/>
<rect x="113.544" y="29.8302" width="2.51478" height="2.51478" fill="#214D59"/>
<rect x="15.4619" y="27.3168" width="65.3878" height="2.51491" fill="#214D59"/>
<rect x="88.3945" y="27.3168" width="25.1495" height="2.51495" fill="#214D59"/>
<rect x="10.4316" y="32.3464" width="2.51478" height="2.51478" fill="#214D59"/>
<rect x="83.3647" y="32.3464" width="2.51478" height="2.51478" fill="#214D59"/>
<rect x="116.059" y="32.3464" width="2.51478" height="2.51478" fill="#214D59"/>
<rect x="10.4326" y="7.19556" width="5.0299" height="2.51495" fill="#214D59"/>
<rect x="23.0063" y="7.19556" width="5.0299" height="2.51495" fill="#214D59"/>
<rect x="35.5815" y="7.19556" width="5.0299" height="2.51495" fill="#214D59"/>
<rect x="7.91699" y="9.71167" width="2.51495" height="5.0299" fill="#214D59"/>
<rect x="20.4917" y="9.71167" width="2.51495" height="5.0299" fill="#214D59"/>
<rect x="33.0669" y="9.71167" width="2.51495" height="5.0299" fill="#214D59"/>
<rect x="10.4316" y="14.741" width="5.0299" height="2.51495" fill="#214D59"/>
<rect x="23.0063" y="14.741" width="5.0299" height="2.51495" fill="#214D59"/>
<rect x="35.5815" y="14.741" width="5.0299" height="2.51495" fill="#214D59"/>
<rect x="15.4619" y="9.71167" width="2.51495" height="5.0299" fill="#214D59"/>
<rect x="28.0361" y="9.71167" width="2.51495" height="5.0299" fill="#214D59"/>
<rect x="40.6108" y="9.71167" width="2.51495" height="5.0299" fill="#214D59"/>
<rect x="350.518" y="2.12988" width="4" height="4" fill="#214D59"/>
<rect x="2.51758" y="258.13" width="4" height="4" fill="#214D59"/>
<rect x="5.51758" y="0.0415039" width="347" height="4" fill="#214D59"/>
<rect x="85.5176" y="7.12988" width="221.313" height="2.51491" fill="#214D59"/>
<rect x="85.8789" y="19.77" width="221.313" height="2.51491" fill="#214D59"/>
<rect x="118.938" y="42.405" width="238.552" height="2.51491" fill="#214D59"/>
<rect x="357.518" y="262.13" width="4" height="257" transform="rotate(180 357.518 262.13)" fill="#214D59"/>
<rect width="2.51478" height="2.51478" transform="matrix(1 0 0 -1 352.46 261.201)" fill="#214D59"/>
<rect x="360.006" y="263.715" width="2.51491" height="253.576" transform="rotate(180 360.006 263.715)" fill="#214D59"/>
<rect x="362.519" y="266.23" width="2.51491" height="253.362" transform="rotate(180 362.519 266.23)" fill="#214D59"/>
<rect x="365.035" y="266.23" width="2.51491" height="250.633" transform="rotate(180 365.035 266.23)" fill="#214D59"/>
<rect x="357.518" y="264.13" width="352" height="4" transform="rotate(180 357.518 264.13)" fill="#214D59"/>
<rect x="335.518" y="191.13" width="12" height="12" fill="#214D59"/>
<rect x="340.518" y="206.13" width="4" height="50" fill="#214D59"/>
<rect x="344.518" y="50.1299" width="138" height="3.99999" transform="rotate(90 344.518 50.1299)" fill="#214D59"/>
<path fill-rule="evenodd" clip-rule="evenodd" d="M184.645 141.991H184.012V134.056H184.645H187.817H188.364C189.711 134.056 191.729 134.438 191.729 135.819V140.58C191.729 141.826 189.222 141.991 187.833 141.991H184.645ZM202.891 154.191C202.956 158.458 206.113 159.849 210.653 159.951L217.762 160C222.143 159.836 224.911 158.308 225.313 154.777L225.259 151.209C225.239 149.815 224.059 147.534 222.379 146.412L212.042 138.961C211.453 138.551 210.65 137.973 210.566 136.881L210.579 135.822C210.685 134.602 212.216 134.268 213.183 134.197L214.311 134.2C215.96 134.2 217.288 134.944 217.333 135.786L217.314 137.094L225.152 137.084L225.191 135.834C225.125 131.566 221.968 130.177 217.428 130.073L210.319 130.025C205.938 130.189 203.17 131.717 202.768 135.248L202.823 138.816C202.842 140.209 204.022 142.491 205.703 143.613L206.961 144.524L216.039 151.332C216.628 151.744 217.431 152.051 217.516 153.144L217.502 154.204C217.396 155.424 215.864 155.757 214.899 155.828L213.77 155.825C212.12 155.825 210.792 155.081 210.748 154.238L210.766 152.931L202.929 152.94L202.891 154.191ZM123.154 159.975H132.79V146.046H142.426V141.991H132.79V134.055H145.699V130H123.154V159.975ZM236.016 137.582L236.015 137.348L236.18 137.582L243.794 147.985H243.679H236.016V137.582ZM228.531 159.975H236.016V153.098H247.957C248.054 153.458 250.105 156.459 250.468 156.963C251.171 157.939 252.31 159.975 253.395 159.975H261.931C261.729 159.227 251.906 145.757 250.523 143.86C248.503 141.091 246.696 138.482 244.644 135.747C242.635 133.068 240.664 130 236.016 130H228.531V159.975ZM148.871 159.975H171.417V156.096H158.871C158.453 156.096 158.326 155.974 158.326 155.567V146.575C158.326 146.169 158.453 146.046 158.871 146.046H168.144V141.991H158.326V134.055H171.417V130H148.871V159.975ZM94.9307 130.529V153.805C94.9307 155.043 96.6401 157.7 97.4711 158.318C99.0453 159.49 100.391 159.975 103.045 159.975H119.981V130H112.395C111.989 130 111.866 130.123 111.866 130.529V156.097H108.161C105.643 156.097 104.619 154.769 104.631 152.219C104.644 149.693 104.633 147.162 104.633 144.635C104.633 142.108 104.633 133.061 104.633 130.533C104.637 130.464 104.663 130.009 104.104 130H95.4604C95.0535 130 94.9307 130.123 94.9307 130.529ZM174.59 130.529L174.545 147.634L174.59 159.977L183.466 159.975C183.883 159.975 184.009 159.853 184.009 159.447L184.012 146.046H186.549C188.302 146.046 191.26 146.131 191.26 147.81V159.975H199.595V147.986C199.595 146.115 197.397 144.106 195.428 144.106C197.379 143.942 199.595 144.038 199.595 139.698V135.995C199.595 131.249 195.666 130 190.717 130H175.133C174.715 130 174.59 130.123 174.59 130.529Z" fill="#233E69"/>
</svg>
